M48
INCH,TZ
T1C0.016
T2C0.031
T3C0.032
T4C0.039
T5C0.040
%
G90
G05
T1
X39500Y-32250
X39500Y-39750
X40000Y-34250
X40500Y-37250
X41000Y-34250
X41500Y-37250
X42000Y-35500
X42500Y-37250
X43000Y-35500
X43500Y-37250
X44000Y-35500
X44500Y-26250
X44500Y-37000
X45500Y-26250
X46500Y-26250
X46500Y-35250
X47000Y-23750
X49000Y-34500
X50000Y-35500
X51500Y-32750
X53750Y-39000
X53750Y-40500
X54250Y-39000
X54250Y-40500
X55750Y-39000
X55750Y-40250
X57250Y-20250
X57250Y-40250
X58500Y-41250
X58750Y-23000
X59000Y-20250
X59000Y-30750
X59750Y-19500
X61500Y-22000
X62500Y-21000
X63000Y-19500
X63000Y-32750
X63000Y-43500
X65000Y-26250
X66000Y-26000
X67000Y-26500
X68000Y-22250
X68000Y-26500
X74000Y-22750
T2
X38500Y-21500
X38500Y-24500
X39000Y-27500
X39000Y-33500
X39000Y-36500
X39000Y-42500
X39500Y-21500
X39500Y-24500
X40000Y-27500
X40000Y-33500
X40000Y-36500
X40000Y-42500
X40500Y-21500
X40500Y-24500
X41000Y-27500
X41000Y-33500
X41000Y-36500
X41000Y-42500
X41500Y-21500
X41500Y-24500
X42000Y-27500
X42000Y-33500
X42000Y-36500
X42000Y-42500
X42500Y-21500
X42500Y-24500
X43000Y-27500
X43000Y-33500
X43000Y-36500
X43000Y-42500
X43500Y-21500
X43500Y-24500
X44000Y-27500
X44000Y-33500
X44000Y-36500
X44000Y-42500
X44500Y-21500
X44500Y-24500
X45000Y-27500
X45000Y-33500
X45000Y-36500
X45000Y-42500
X45500Y-21500
X45500Y-24500
X46000Y-27500
X46000Y-33500
X46000Y-36500
X46000Y-42500
X46500Y-21500
X46500Y-24500
X47000Y-27500
X47000Y-33500
X47000Y-36500
X47000Y-42500
X47500Y-21500
X47500Y-24500
X48000Y-27500
X48000Y-33500
X48000Y-36500
X48000Y-42500
X49000Y-27500
X49000Y-33500
X49000Y-36500
X49000Y-42500
X50000Y-27500
X50000Y-33500
X50000Y-36500
X50000Y-42500
X51000Y-27500
X51000Y-33500
X51000Y-36500
X51000Y-42500
X52000Y-21500
X52000Y-24500
X52000Y-27500
X52000Y-33500
X52000Y-36500
X52000Y-42500
X53000Y-21500
X53000Y-24500
X53000Y-36500
X53000Y-42500
X54000Y-21500
X54000Y-24500
X54000Y-36500
X54000Y-42500
X55000Y-21500
X55000Y-24500
X55000Y-36500
X55000Y-42500
X56000Y-21500
X56000Y-24500
X56000Y-36500
X56000Y-42500
X57000Y-21500
X57000Y-24500
X57000Y-36500
X57000Y-42500
X58000Y-21500
X58000Y-24500
X58000Y-36500
X58000Y-42500
X59000Y-21500
X59000Y-24500
X60000Y-21500
X60000Y-24500
X61000Y-21500
X61000Y-24500
X62250Y-27500
X62250Y-30500
X63250Y-27500
X63250Y-30500
X64250Y-27500
X64250Y-30500
X65000Y-21500
X65000Y-24500
X65250Y-27500
X65250Y-30500
X66000Y-21500
X66000Y-24500
X66250Y-27500
X66250Y-30500
X67000Y-21500
X67000Y-24500
X67250Y-27500
X67250Y-30500
X68000Y-21500
X68000Y-24500
X68250Y-27500
X68250Y-30500
X69000Y-21500
X69000Y-24500
X69250Y-27500
X69250Y-30500
X70000Y-21500
X70000Y-24500
X70250Y-27500
X70250Y-30500
X71000Y-21500
X71000Y-24500
X71250Y-27500
X71250Y-30500
X72000Y-21500
X72000Y-24500
X73000Y-21500
X73000Y-24500
X74000Y-21500
X74000Y-24500
T3
X68500Y-40500
X68500Y-42500
X71500Y-40500
X71500Y-42500
T4
X56000Y-35000
X60000Y-35000
X62000Y-35250
X62000Y-39250
X62000Y-41500
X62000Y-42500
X74500Y-26500
X74500Y-30500
T5
X49250Y-21500
X49250Y-24500
X50250Y-21500
X50250Y-24500
X53750Y-30500
X53750Y-33500
X60000Y-37750
X60000Y-40750
X60500Y-27500
X60500Y-30500
X63250Y-21500
X63250Y-24500
X66250Y-33000
X66250Y-34000
X67250Y-33000
X67250Y-34000
X68250Y-33000
X68250Y-34000
X69250Y-33000
X69250Y-34000
X70250Y-33000
X70250Y-34000
X71250Y-33000
X71250Y-34000
X72250Y-33000
X72250Y-34000
X73000Y-27500
X73000Y-30500
X73250Y-33000
X73250Y-34000
T0
M30
