G04 #@! TF.FileFunction,Copper,L1,Top,Signal*
%FSLAX46Y46*%
G04 Gerber Fmt 4.6, Leading zero omitted, Abs format (unit mm)*
G04 Created by KiCad (PCBNEW 4.0.2+e4-6225~38~ubuntu14.04.1-stable) date Thu 16 Jun 2016 02:06:54 PM CEST*
%MOMM*%
G01*
G04 APERTURE LIST*
%ADD10C,0.100000*%
%ADD11C,1.778000*%
%ADD12O,1.600000X1.600000*%
%ADD13R,2.000000X1.900000*%
%ADD14C,1.900000*%
%ADD15R,1.778000X15.000000*%
%ADD16C,1.397000*%
%ADD17C,1.998980*%
%ADD18C,0.600000*%
%ADD19C,0.250000*%
%ADD20C,0.500000*%
G04 APERTURE END LIST*
D10*
D11*
X168275000Y-86360000D03*
X170815000Y-86360000D03*
X173355000Y-86360000D03*
X175895000Y-86360000D03*
X178435000Y-86360000D03*
X180975000Y-86360000D03*
X183515000Y-86360000D03*
X186055000Y-86360000D03*
X186055000Y-83820000D03*
X183515000Y-83820000D03*
X180975000Y-83820000D03*
X178435000Y-83820000D03*
X175895000Y-83820000D03*
X173355000Y-83820000D03*
X170815000Y-83820000D03*
X168275000Y-83820000D03*
D12*
X99060000Y-107950000D03*
X101600000Y-107950000D03*
X104140000Y-107950000D03*
X106680000Y-107950000D03*
X109220000Y-107950000D03*
X111760000Y-107950000D03*
X114300000Y-107950000D03*
X116840000Y-107950000D03*
X119380000Y-107950000D03*
X121920000Y-107950000D03*
X124460000Y-107950000D03*
X127000000Y-107950000D03*
X129540000Y-107950000D03*
X132080000Y-107950000D03*
X134620000Y-107950000D03*
X137160000Y-107950000D03*
X139700000Y-107950000D03*
X142240000Y-107950000D03*
X144780000Y-107950000D03*
X147320000Y-107950000D03*
X147320000Y-92710000D03*
X144780000Y-92710000D03*
X142240000Y-92710000D03*
X139700000Y-92710000D03*
X137160000Y-92710000D03*
X134620000Y-92710000D03*
X132080000Y-92710000D03*
X129540000Y-92710000D03*
X127000000Y-92710000D03*
X124460000Y-92710000D03*
X121920000Y-92710000D03*
X119380000Y-92710000D03*
X116840000Y-92710000D03*
X114300000Y-92710000D03*
X111760000Y-92710000D03*
X109220000Y-92710000D03*
X106680000Y-92710000D03*
X104140000Y-92710000D03*
X101600000Y-92710000D03*
X99060000Y-92710000D03*
X158115000Y-77470000D03*
X160655000Y-77470000D03*
X163195000Y-77470000D03*
X165735000Y-77470000D03*
X168275000Y-77470000D03*
X170815000Y-77470000D03*
X173355000Y-77470000D03*
X175895000Y-77470000D03*
X178435000Y-77470000D03*
X180975000Y-77470000D03*
X180975000Y-69850000D03*
X178435000Y-69850000D03*
X175895000Y-69850000D03*
X173355000Y-69850000D03*
X170815000Y-69850000D03*
X168275000Y-69850000D03*
X165735000Y-69850000D03*
X163195000Y-69850000D03*
X160655000Y-69850000D03*
X158115000Y-69850000D03*
D11*
X125095000Y-54610000D03*
X125095000Y-62230000D03*
D12*
X154940000Y-54610000D03*
X152400000Y-54610000D03*
X149860000Y-54610000D03*
X147320000Y-54610000D03*
X144780000Y-54610000D03*
X142240000Y-54610000D03*
X139700000Y-54610000D03*
X137160000Y-54610000D03*
X134620000Y-54610000D03*
X132080000Y-54610000D03*
X132080000Y-62230000D03*
X134620000Y-62230000D03*
X137160000Y-62230000D03*
X139700000Y-62230000D03*
X142240000Y-62230000D03*
X144780000Y-62230000D03*
X147320000Y-62230000D03*
X149860000Y-62230000D03*
X152400000Y-62230000D03*
X154940000Y-62230000D03*
D13*
X157480000Y-107950000D03*
D14*
X157480000Y-105410000D03*
D15*
X165100000Y-40640000D03*
X162560000Y-40640000D03*
X160020000Y-40640000D03*
X157480000Y-40640000D03*
X154940000Y-40640000D03*
X152400000Y-40640000D03*
X149860000Y-40640000D03*
X147320000Y-40640000D03*
X144780000Y-40640000D03*
X142240000Y-40640000D03*
X139700000Y-40640000D03*
X137160000Y-40640000D03*
X134620000Y-40640000D03*
X132080000Y-40640000D03*
X129540000Y-40640000D03*
X127000000Y-40640000D03*
X124460000Y-40640000D03*
X121920000Y-40640000D03*
D16*
X173990000Y-107950000D03*
X173990000Y-102870000D03*
X181610000Y-107950000D03*
X181610000Y-102870000D03*
D12*
X187960000Y-54610000D03*
X185420000Y-54610000D03*
X182880000Y-54610000D03*
X180340000Y-54610000D03*
X177800000Y-54610000D03*
X175260000Y-54610000D03*
X172720000Y-54610000D03*
X170180000Y-54610000D03*
X167640000Y-54610000D03*
X165100000Y-54610000D03*
X165100000Y-62230000D03*
X167640000Y-62230000D03*
X170180000Y-62230000D03*
X172720000Y-62230000D03*
X175260000Y-62230000D03*
X177800000Y-62230000D03*
X180340000Y-62230000D03*
X182880000Y-62230000D03*
X185420000Y-62230000D03*
X187960000Y-62230000D03*
X97790000Y-62230000D03*
X100330000Y-62230000D03*
X102870000Y-62230000D03*
X105410000Y-62230000D03*
X107950000Y-62230000D03*
X110490000Y-62230000D03*
X113030000Y-62230000D03*
X115570000Y-62230000D03*
X118110000Y-62230000D03*
X120650000Y-62230000D03*
X120650000Y-54610000D03*
X118110000Y-54610000D03*
X115570000Y-54610000D03*
X113030000Y-54610000D03*
X110490000Y-54610000D03*
X107950000Y-54610000D03*
X105410000Y-54610000D03*
X102870000Y-54610000D03*
X100330000Y-54610000D03*
X97790000Y-54610000D03*
X132080000Y-69850000D03*
X129540000Y-69850000D03*
X127000000Y-69850000D03*
X124460000Y-69850000D03*
X121920000Y-69850000D03*
X119380000Y-69850000D03*
X116840000Y-69850000D03*
X114300000Y-69850000D03*
X111760000Y-69850000D03*
X109220000Y-69850000D03*
X106680000Y-69850000D03*
X104140000Y-69850000D03*
X101600000Y-69850000D03*
X99060000Y-69850000D03*
X99060000Y-85090000D03*
X101600000Y-85090000D03*
X104140000Y-85090000D03*
X106680000Y-85090000D03*
X109220000Y-85090000D03*
X111760000Y-85090000D03*
X114300000Y-85090000D03*
X116840000Y-85090000D03*
X119380000Y-85090000D03*
X121920000Y-85090000D03*
X124460000Y-85090000D03*
X127000000Y-85090000D03*
X129540000Y-85090000D03*
X132080000Y-85090000D03*
D11*
X127635000Y-62230000D03*
X127635000Y-54610000D03*
X160655000Y-62230000D03*
X160655000Y-54610000D03*
X153670000Y-69850000D03*
X153670000Y-77470000D03*
X136525000Y-85090000D03*
X136525000Y-77470000D03*
X152400000Y-103505000D03*
X152400000Y-95885000D03*
X185420000Y-77470000D03*
X185420000Y-69850000D03*
D17*
X189230000Y-77470000D03*
X189230000Y-67310000D03*
X157480000Y-99695000D03*
X157480000Y-89535000D03*
X142240000Y-88900000D03*
X152400000Y-88900000D03*
D18*
X160020000Y-110490000D03*
X187960000Y-57785000D03*
X100330000Y-100965000D03*
X100330000Y-81915000D03*
X102870000Y-94615000D03*
X101600000Y-86995000D03*
X113030000Y-66675000D03*
X104140000Y-86995000D03*
X105410000Y-94615000D03*
X115570000Y-66675000D03*
X107950000Y-94615000D03*
X106680000Y-90170000D03*
X118110000Y-66675000D03*
X110490000Y-94615000D03*
X109220000Y-90170000D03*
X149860000Y-78105000D03*
X119380000Y-60325000D03*
X172720000Y-67310000D03*
X127000000Y-90170000D03*
X130810000Y-83185000D03*
X170180000Y-67310000D03*
X167640000Y-66040000D03*
X124460000Y-87630000D03*
X165100000Y-66675000D03*
X156210000Y-55880000D03*
X158750000Y-53340000D03*
X145415000Y-51435000D03*
X149860000Y-51435000D03*
X172720000Y-56515000D03*
X149225000Y-58420000D03*
X151765000Y-49530000D03*
X141605000Y-102235000D03*
X141605000Y-99060000D03*
X145415000Y-102235000D03*
X148590000Y-104775000D03*
X160020000Y-83185000D03*
X118110000Y-89535000D03*
X137795000Y-99060000D03*
X137795000Y-102870000D03*
X136525000Y-99060000D03*
X136525000Y-102870000D03*
X111760000Y-90170000D03*
X113030000Y-93980000D03*
X160020000Y-49530000D03*
D19*
X140785002Y-93980000D02*
X140970000Y-93980000D01*
X157441900Y-94653100D02*
X157480000Y-94653100D01*
D20*
X147320000Y-110490000D02*
X152400000Y-110490000D01*
X152400000Y-110490000D02*
X154940000Y-110490000D01*
X160020000Y-110490000D02*
X154940000Y-110490000D01*
X95885000Y-109855000D02*
X96520000Y-110490000D01*
X95250000Y-69850000D02*
X95250000Y-97790000D01*
X95250000Y-109220000D02*
X95250000Y-97790000D01*
X95885000Y-109855000D02*
X95250000Y-109220000D01*
X96520000Y-110490000D02*
X147320000Y-110490000D01*
X153670000Y-77470000D02*
X156210000Y-80010000D01*
X178435000Y-80010000D02*
X180975000Y-77470000D01*
X156210000Y-80010000D02*
X178435000Y-80010000D01*
X99060000Y-69850000D02*
X95250000Y-69850000D01*
X160655000Y-54610000D02*
X165100000Y-54610000D01*
X125095000Y-62230000D02*
X120650000Y-62230000D01*
X126365000Y-48895000D02*
X127635000Y-48895000D01*
X121920000Y-48895000D02*
X126365000Y-48895000D01*
X132080000Y-53340000D02*
X132080000Y-54610000D01*
X127635000Y-48895000D02*
X132080000Y-53340000D01*
X122872500Y-60007500D02*
X122555000Y-60325000D01*
X152400000Y-95885000D02*
X147320000Y-100965000D01*
X147320000Y-100965000D02*
X147320000Y-107950000D01*
X121920000Y-48260000D02*
X121920000Y-48895000D01*
X121920000Y-48260000D02*
X121920000Y-40640000D01*
X119380000Y-50800000D02*
X97790000Y-50800000D01*
X95250000Y-68580000D02*
X95250000Y-69850000D01*
X121920000Y-48895000D02*
X120015000Y-50800000D01*
X120015000Y-50800000D02*
X119380000Y-50800000D01*
X95250000Y-68580000D02*
X95250000Y-53340000D01*
X97790000Y-50800000D02*
X95250000Y-53340000D01*
X132080000Y-54610000D02*
X127000000Y-59690000D01*
X123190000Y-59690000D02*
X122555000Y-60325000D01*
X127000000Y-59690000D02*
X125095000Y-59690000D01*
X125095000Y-59690000D02*
X123190000Y-59690000D01*
X122555000Y-60325000D02*
X120650000Y-62230000D01*
X147320000Y-107950000D02*
X147320000Y-110490000D01*
X142240000Y-88900000D02*
X142240000Y-81280000D01*
X187960000Y-57785000D02*
X190500000Y-60325000D01*
X187960000Y-62230000D02*
X190182500Y-60007500D01*
X190182500Y-60007500D02*
X190500000Y-60325000D01*
X151130000Y-81280000D02*
X151130000Y-72390000D01*
X151130000Y-72390000D02*
X153670000Y-69850000D01*
X180975000Y-88900000D02*
X180975000Y-86360000D01*
X156210000Y-81280000D02*
X151130000Y-81280000D01*
X151130000Y-81280000D02*
X142240000Y-81280000D01*
X142240000Y-81280000D02*
X135890000Y-81280000D01*
X135890000Y-81280000D02*
X132080000Y-85090000D01*
X153670000Y-69850000D02*
X158115000Y-69850000D01*
X183515000Y-88900000D02*
X180975000Y-88900000D01*
X186055000Y-88900000D02*
X183515000Y-88900000D01*
X191135000Y-83820000D02*
X186055000Y-88900000D01*
X191135000Y-60960000D02*
X191135000Y-83820000D01*
X190500000Y-60325000D02*
X191135000Y-60960000D01*
X180975000Y-88900000D02*
X163830000Y-88900000D01*
X180975000Y-86360000D02*
X180975000Y-83820000D01*
X97790000Y-54610000D02*
X99695000Y-52705000D01*
X123190000Y-52705000D02*
X125095000Y-54610000D01*
X99695000Y-52705000D02*
X123190000Y-52705000D01*
X159385000Y-84455000D02*
X156210000Y-81280000D01*
X163830000Y-88900000D02*
X159385000Y-84455000D01*
X159087820Y-84157820D02*
X159385000Y-84455000D01*
D19*
X157480000Y-105410000D02*
X157480000Y-99695000D01*
X100330000Y-62230000D02*
X100330000Y-60325000D01*
X106680000Y-66040000D02*
X109220000Y-63500000D01*
X109220000Y-63500000D02*
X109220000Y-60960000D01*
X109220000Y-60960000D02*
X108585000Y-60325000D01*
X106680000Y-66040000D02*
X106680000Y-69850000D01*
X107950000Y-59690000D02*
X108585000Y-60325000D01*
X100965000Y-59690000D02*
X107950000Y-59690000D01*
X100330000Y-60325000D02*
X100965000Y-59690000D01*
X121920000Y-107950000D02*
X116840000Y-102870000D01*
X100330000Y-81915000D02*
X100330000Y-77470000D01*
X100330000Y-77470000D02*
X106680000Y-71120000D01*
X106680000Y-71120000D02*
X106680000Y-69850000D01*
X102235000Y-102870000D02*
X100330000Y-100965000D01*
X116840000Y-102870000D02*
X102235000Y-102870000D01*
X121920000Y-107950000D02*
X121920000Y-107315000D01*
X104140000Y-69850000D02*
X104140000Y-63500000D01*
X104140000Y-63500000D02*
X102870000Y-62230000D01*
X124460000Y-107950000D02*
X116205000Y-99695000D01*
X104140000Y-71120000D02*
X104140000Y-69850000D01*
X97790000Y-77470000D02*
X104140000Y-71120000D01*
X97790000Y-97790000D02*
X97790000Y-77470000D01*
X99695000Y-99695000D02*
X97790000Y-97790000D01*
X100330000Y-99695000D02*
X99695000Y-99695000D01*
X116205000Y-99695000D02*
X100330000Y-99695000D01*
X105410000Y-62230000D02*
X104140000Y-60960000D01*
X101600000Y-61595000D02*
X101600000Y-69850000D01*
X102235000Y-60960000D02*
X101600000Y-61595000D01*
X104140000Y-60960000D02*
X102235000Y-60960000D01*
X127000000Y-107950000D02*
X125730000Y-109220000D01*
X101600000Y-72390000D02*
X101600000Y-69850000D01*
X96520000Y-77470000D02*
X101600000Y-72390000D01*
X96520000Y-108585000D02*
X96520000Y-77470000D01*
X97155000Y-109220000D02*
X96520000Y-108585000D01*
X125730000Y-109220000D02*
X97155000Y-109220000D01*
X105410000Y-71120000D02*
X105410000Y-66040000D01*
X99060000Y-77470000D02*
X105410000Y-71120000D01*
X99060000Y-85090000D02*
X99060000Y-77470000D01*
X107950000Y-63500000D02*
X107950000Y-62230000D01*
X105410000Y-66040000D02*
X107950000Y-63500000D01*
X99060000Y-85090000D02*
X100330000Y-86360000D01*
X120015000Y-98425000D02*
X129540000Y-107950000D01*
X104140000Y-98425000D02*
X120015000Y-98425000D01*
X100330000Y-94615000D02*
X104140000Y-98425000D01*
X100330000Y-86360000D02*
X100330000Y-94615000D01*
X107950000Y-71120000D02*
X107950000Y-68580000D01*
X101600000Y-85090000D02*
X101600000Y-77470000D01*
X101600000Y-77470000D02*
X107950000Y-71120000D01*
X110490000Y-66040000D02*
X110490000Y-62230000D01*
X107950000Y-68580000D02*
X110490000Y-66040000D01*
X101600000Y-85090000D02*
X101600000Y-86995000D01*
X121920000Y-97790000D02*
X132080000Y-107950000D01*
X106045000Y-97790000D02*
X121920000Y-97790000D01*
X102870000Y-94615000D02*
X106045000Y-97790000D01*
X110490000Y-76200000D02*
X110490000Y-69215000D01*
X104140000Y-82550000D02*
X110490000Y-76200000D01*
X104140000Y-82550000D02*
X104140000Y-85090000D01*
X110490000Y-69215000D02*
X113030000Y-66675000D01*
X104140000Y-85090000D02*
X104140000Y-86995000D01*
X105410000Y-94615000D02*
X107950000Y-97155000D01*
X107950000Y-97155000D02*
X123825000Y-97155000D01*
X123825000Y-97155000D02*
X134620000Y-107950000D01*
X113030000Y-76200000D02*
X113030000Y-69215000D01*
X106680000Y-82550000D02*
X113030000Y-76200000D01*
X106680000Y-82550000D02*
X106680000Y-85090000D01*
X113030000Y-69215000D02*
X115570000Y-66675000D01*
X125730000Y-96520000D02*
X131445000Y-102235000D01*
X131445000Y-102235000D02*
X136975002Y-107950000D01*
X106680000Y-85090000D02*
X106680000Y-90170000D01*
X109901250Y-96520000D02*
X125730000Y-96520000D01*
X107950000Y-94615000D02*
X109901250Y-96520000D01*
X109220000Y-85090000D02*
X109220000Y-82550000D01*
X115570000Y-69215000D02*
X118110000Y-66675000D01*
X115570000Y-76200000D02*
X115570000Y-69215000D01*
X109220000Y-82550000D02*
X115570000Y-76200000D01*
X109220000Y-85090000D02*
X109220000Y-90170000D01*
X127635000Y-95885000D02*
X139700000Y-107950000D01*
X111760000Y-95885000D02*
X127635000Y-95885000D01*
X110490000Y-94615000D02*
X111760000Y-95885000D01*
X149860000Y-64770000D02*
X149860000Y-78105000D01*
X149860000Y-64770000D02*
X152400000Y-62230000D01*
X119380000Y-60325000D02*
X116205000Y-57150000D01*
X102870000Y-57150000D02*
X100330000Y-54610000D01*
X116205000Y-57150000D02*
X102870000Y-57150000D01*
X100330000Y-54610000D02*
X100330000Y-55245000D01*
X152400000Y-62230000D02*
X152400000Y-62230000D01*
X172720000Y-62230000D02*
X172720000Y-67310000D01*
X137160000Y-92710000D02*
X135890000Y-93980000D01*
X128270000Y-91440000D02*
X127000000Y-90170000D01*
X128270000Y-93345000D02*
X128270000Y-91440000D01*
X128905000Y-93980000D02*
X128270000Y-93345000D01*
X129540000Y-93980000D02*
X128905000Y-93980000D01*
X135890000Y-93980000D02*
X129540000Y-93980000D01*
X128270000Y-83820000D02*
X128270000Y-86995000D01*
X129540000Y-69850000D02*
X129540000Y-82550000D01*
X129540000Y-82550000D02*
X128270000Y-83820000D01*
X132715000Y-90805000D02*
X134620000Y-92710000D01*
X132080000Y-90805000D02*
X132715000Y-90805000D01*
X128270000Y-86995000D02*
X132080000Y-90805000D01*
X127000000Y-85090000D02*
X127000000Y-87630000D01*
X127000000Y-87630000D02*
X132080000Y-92710000D01*
X130810000Y-74930000D02*
X132080000Y-73660000D01*
X130810000Y-83185000D02*
X130810000Y-74930000D01*
X132080000Y-73660000D02*
X132080000Y-69850000D01*
X170180000Y-67310000D02*
X170180000Y-62230000D01*
X167640000Y-66040000D02*
X167640000Y-62230000D01*
X124460000Y-92710000D02*
X124460000Y-87630000D01*
X165100000Y-66675000D02*
X165100000Y-62230000D01*
X121920000Y-92710000D02*
X123190000Y-91440000D01*
X123190000Y-86360000D02*
X124460000Y-85090000D01*
X123190000Y-91440000D02*
X123190000Y-86360000D01*
X119380000Y-92710000D02*
X120650000Y-91440000D01*
X127000000Y-76200000D02*
X127000000Y-69850000D01*
X120650000Y-82550000D02*
X127000000Y-76200000D01*
X120650000Y-91440000D02*
X120650000Y-82550000D01*
X149860000Y-62230000D02*
X149860000Y-63500000D01*
X128270000Y-68580000D02*
X127000000Y-69850000D01*
X144780000Y-68580000D02*
X128270000Y-68580000D01*
X149860000Y-63500000D02*
X144780000Y-68580000D01*
X116840000Y-92710000D02*
X116840000Y-87630000D01*
X118110000Y-82550000D02*
X124460000Y-76200000D01*
X124460000Y-76200000D02*
X124460000Y-69850000D01*
X118110000Y-86360000D02*
X118110000Y-82550000D01*
X116840000Y-87630000D02*
X118110000Y-86360000D01*
X147320000Y-62230000D02*
X141605000Y-67945000D01*
X126365000Y-67945000D02*
X124460000Y-69850000D01*
X141605000Y-67945000D02*
X126365000Y-67945000D01*
X114300000Y-92710000D02*
X115570000Y-91440000D01*
X121920000Y-76200000D02*
X121920000Y-69850000D01*
X115570000Y-82550000D02*
X121920000Y-76200000D01*
X115570000Y-91440000D02*
X115570000Y-82550000D01*
X144780000Y-62230000D02*
X139700000Y-67310000D01*
X124460000Y-67310000D02*
X121920000Y-69850000D01*
X139700000Y-67310000D02*
X124460000Y-67310000D01*
X111760000Y-92710000D02*
X113030000Y-91440000D01*
X119380000Y-76200000D02*
X119380000Y-69850000D01*
X113030000Y-82550000D02*
X119380000Y-76200000D01*
X113030000Y-91440000D02*
X113030000Y-82550000D01*
X119380000Y-69850000D02*
X119380000Y-69850000D01*
X119380000Y-69850000D02*
X122555000Y-66675000D01*
X122555000Y-66675000D02*
X139065000Y-66675000D01*
X139065000Y-66675000D02*
X142240000Y-63500000D01*
X142240000Y-63500000D02*
X142240000Y-62230000D01*
X109220000Y-92710000D02*
X110490000Y-91440000D01*
X116840000Y-76200000D02*
X116840000Y-69850000D01*
X110490000Y-82550000D02*
X116840000Y-76200000D01*
X110490000Y-91440000D02*
X110490000Y-82550000D01*
X139700000Y-62230000D02*
X135890000Y-66040000D01*
X120650000Y-66040000D02*
X116840000Y-69850000D01*
X135890000Y-66040000D02*
X120650000Y-66040000D01*
X118745000Y-65405000D02*
X118110000Y-65405000D01*
X114300000Y-69850000D02*
X114300000Y-69215000D01*
X133985000Y-65405000D02*
X118745000Y-65405000D01*
X133985000Y-65405000D02*
X137160000Y-62230000D01*
X114300000Y-69215000D02*
X118110000Y-65405000D01*
X106680000Y-92710000D02*
X107950000Y-91440000D01*
X114300000Y-76200000D02*
X114300000Y-69850000D01*
X107950000Y-82550000D02*
X114300000Y-76200000D01*
X107950000Y-91440000D02*
X107950000Y-82550000D01*
X118110000Y-64770000D02*
X116205000Y-64770000D01*
X111760000Y-69850000D02*
X111760000Y-69215000D01*
X132080000Y-64770000D02*
X134620000Y-62230000D01*
X132080000Y-64770000D02*
X118110000Y-64770000D01*
X111760000Y-69215000D02*
X116205000Y-64770000D01*
X104140000Y-92710000D02*
X105410000Y-91440000D01*
X111760000Y-76200000D02*
X111760000Y-69850000D01*
X105410000Y-82550000D02*
X111760000Y-76200000D01*
X105410000Y-91440000D02*
X105410000Y-82550000D01*
X114935000Y-64135000D02*
X114300000Y-64135000D01*
X109220000Y-69850000D02*
X109220000Y-69215000D01*
X130175000Y-64135000D02*
X114935000Y-64135000D01*
X130175000Y-64135000D02*
X132080000Y-62230000D01*
X109220000Y-69215000D02*
X114300000Y-64135000D01*
X101600000Y-92710000D02*
X102870000Y-91440000D01*
X109220000Y-76200000D02*
X109220000Y-69850000D01*
X102870000Y-82550000D02*
X109220000Y-76200000D01*
X102870000Y-91440000D02*
X102870000Y-82550000D01*
X158750000Y-53340000D02*
X156210000Y-55880000D01*
X154305000Y-59690000D02*
X163195000Y-68580000D01*
X137160000Y-54610000D02*
X142240000Y-59690000D01*
X154305000Y-59690000D02*
X154305000Y-59690000D01*
X142240000Y-59690000D02*
X154305000Y-59690000D01*
X163195000Y-68580000D02*
X163195000Y-69850000D01*
X145415000Y-51435000D02*
X149860000Y-51435000D01*
X168910000Y-58420000D02*
X168910000Y-60325000D01*
X168910000Y-60325000D02*
X168910000Y-61595000D01*
X161290000Y-68580000D02*
X160655000Y-68580000D01*
X166370000Y-71120000D02*
X162560000Y-71120000D01*
X162560000Y-71120000D02*
X161925000Y-70485000D01*
X161925000Y-70485000D02*
X161925000Y-69215000D01*
X161925000Y-69215000D02*
X161290000Y-68580000D01*
X159385000Y-76200000D02*
X158115000Y-77470000D01*
X167005000Y-68580000D02*
X167005000Y-70485000D01*
X168910000Y-66675000D02*
X167005000Y-68580000D01*
X168910000Y-61595000D02*
X168910000Y-66675000D01*
X167005000Y-70485000D02*
X166370000Y-71120000D01*
X159385000Y-69215000D02*
X159385000Y-76200000D01*
X160020000Y-68580000D02*
X159385000Y-69215000D01*
X160655000Y-68580000D02*
X160020000Y-68580000D01*
X155575000Y-58420000D02*
X168910000Y-58420000D01*
X168910000Y-58420000D02*
X170815000Y-58420000D01*
X170815000Y-58420000D02*
X172720000Y-56515000D01*
X154940000Y-54610000D02*
X154940000Y-56515000D01*
X155575000Y-57150000D02*
X155575000Y-58420000D01*
X154940000Y-56515000D02*
X155575000Y-57150000D01*
X155575000Y-58420000D02*
X154940000Y-58420000D01*
X149225000Y-58420000D02*
X154940000Y-58420000D01*
X163830000Y-49530000D02*
X163195000Y-49530000D01*
X163830000Y-49530000D02*
X180340000Y-49530000D01*
X185420000Y-54610000D02*
X180340000Y-49530000D01*
X162560000Y-48895000D02*
X162560000Y-40640000D01*
X163195000Y-49530000D02*
X162560000Y-48895000D01*
X185420000Y-54610000D02*
X187960000Y-54610000D01*
X162560000Y-48260000D02*
X162560000Y-40640000D01*
X173355000Y-69850000D02*
X173990000Y-69215000D01*
X173990000Y-55880000D02*
X175260000Y-54610000D01*
X173990000Y-69215000D02*
X173990000Y-55880000D01*
X175260000Y-54610000D02*
X170815000Y-50165000D01*
X170815000Y-50165000D02*
X158750000Y-50165000D01*
X158750000Y-50165000D02*
X157480000Y-48895000D01*
X157480000Y-48895000D02*
X157480000Y-40640000D01*
X168910000Y-50800000D02*
X156845000Y-50800000D01*
X156845000Y-50800000D02*
X154940000Y-48895000D01*
X154940000Y-40640000D02*
X154940000Y-48895000D01*
X168910000Y-50800000D02*
X172720000Y-54610000D01*
X170180000Y-54610000D02*
X167005000Y-51435000D01*
X152400000Y-48895000D02*
X152400000Y-40640000D01*
X154940000Y-51435000D02*
X152400000Y-48895000D01*
X167005000Y-51435000D02*
X154940000Y-51435000D01*
X151765000Y-49530000D02*
X151130000Y-49530000D01*
X151130000Y-49530000D02*
X149860000Y-48260000D01*
X149860000Y-40640000D02*
X149860000Y-48260000D01*
X175895000Y-69850000D02*
X176530000Y-69215000D01*
X176530000Y-55880000D02*
X177800000Y-54610000D01*
X176530000Y-69215000D02*
X176530000Y-55880000D01*
X165100000Y-52070000D02*
X154305000Y-52070000D01*
X167640000Y-54610000D02*
X165100000Y-52070000D01*
X147320000Y-48260000D02*
X147320000Y-40640000D01*
X149225000Y-50165000D02*
X147320000Y-48260000D01*
X152400000Y-50165000D02*
X149225000Y-50165000D01*
X154305000Y-52070000D02*
X152400000Y-50165000D01*
X152400000Y-54610000D02*
X152400000Y-51435000D01*
X144780000Y-48260000D02*
X144780000Y-40640000D01*
X145415000Y-48895000D02*
X144780000Y-48260000D01*
X146685000Y-48895000D02*
X145415000Y-48895000D01*
X148590000Y-50800000D02*
X146685000Y-48895000D01*
X151765000Y-50800000D02*
X148590000Y-50800000D01*
X152400000Y-51435000D02*
X151765000Y-50800000D01*
X142240000Y-48895000D02*
X142240000Y-50800000D01*
X147320000Y-53340000D02*
X148590000Y-53340000D01*
X149860000Y-54610000D02*
X148590000Y-53340000D01*
X142240000Y-48895000D02*
X142240000Y-40640000D01*
X146685000Y-52705000D02*
X147320000Y-53340000D01*
X145415000Y-52705000D02*
X146685000Y-52705000D01*
X143510000Y-50800000D02*
X145415000Y-52705000D01*
X142240000Y-50800000D02*
X143510000Y-50800000D01*
X140335000Y-51435000D02*
X142875000Y-51435000D01*
X139700000Y-50800000D02*
X140335000Y-51435000D01*
X139700000Y-40640000D02*
X139700000Y-48895000D01*
X139700000Y-48895000D02*
X139700000Y-50800000D01*
X146050000Y-53340000D02*
X147320000Y-54610000D01*
X144780000Y-53340000D02*
X146050000Y-53340000D01*
X142875000Y-51435000D02*
X144780000Y-53340000D01*
X137160000Y-48895000D02*
X137160000Y-51435000D01*
X137160000Y-40640000D02*
X137160000Y-48895000D01*
X142240000Y-52070000D02*
X144780000Y-54610000D01*
X137795000Y-52070000D02*
X142240000Y-52070000D01*
X137160000Y-51435000D02*
X137795000Y-52070000D01*
X134620000Y-48895000D02*
X134620000Y-50165000D01*
X140335000Y-52705000D02*
X138430000Y-52705000D01*
X134620000Y-40640000D02*
X134620000Y-48895000D01*
X140335000Y-52705000D02*
X142240000Y-54610000D01*
X137160000Y-52705000D02*
X138430000Y-52705000D01*
X134620000Y-50165000D02*
X137160000Y-52705000D01*
X165735000Y-69850000D02*
X154940000Y-59055000D01*
X144145000Y-59055000D02*
X139700000Y-54610000D01*
X154940000Y-59055000D02*
X154940000Y-59055000D01*
X144145000Y-59055000D02*
X154940000Y-59055000D01*
X139700000Y-54610000D02*
X138430000Y-53340000D01*
X132080000Y-48895000D02*
X132080000Y-40640000D01*
X136525000Y-53340000D02*
X132080000Y-48895000D01*
X138430000Y-53340000D02*
X136525000Y-53340000D01*
X129540000Y-40640000D02*
X129540000Y-49530000D01*
X129540000Y-49530000D02*
X134620000Y-54610000D01*
X182880000Y-54610000D02*
X181610000Y-53340000D01*
X169545000Y-71120000D02*
X176530000Y-71120000D01*
X176530000Y-71120000D02*
X177165000Y-70485000D01*
X177165000Y-70485000D02*
X177165000Y-65405000D01*
X177165000Y-65405000D02*
X179070000Y-63500000D01*
X179070000Y-63500000D02*
X179070000Y-58420000D01*
X169545000Y-71120000D02*
X168275000Y-69850000D01*
X179070000Y-53975000D02*
X179070000Y-58420000D01*
X179705000Y-53340000D02*
X179070000Y-53975000D01*
X181610000Y-53340000D02*
X179705000Y-53340000D01*
X162560000Y-71755000D02*
X161290000Y-71755000D01*
X179070000Y-71755000D02*
X162560000Y-71755000D01*
X179705000Y-71120000D02*
X179070000Y-71755000D01*
X179705000Y-68580000D02*
X179705000Y-71120000D01*
X181610000Y-66675000D02*
X179705000Y-68580000D01*
X181610000Y-60960000D02*
X181610000Y-66675000D01*
X181610000Y-55880000D02*
X181610000Y-60960000D01*
X180340000Y-54610000D02*
X181610000Y-55880000D01*
X160655000Y-71120000D02*
X160655000Y-69850000D01*
X161290000Y-71755000D02*
X160655000Y-71120000D01*
X141605000Y-99060000D02*
X141605000Y-102235000D01*
X157480000Y-89535000D02*
X154305000Y-89535000D01*
X145415000Y-98425000D02*
X145415000Y-102235000D01*
X154305000Y-89535000D02*
X145415000Y-98425000D01*
X152400000Y-88900000D02*
X153670000Y-87630000D01*
X163830000Y-92075000D02*
X163830000Y-97790000D01*
X159385000Y-87630000D02*
X163830000Y-92075000D01*
X153670000Y-87630000D02*
X159385000Y-87630000D01*
X155575000Y-97790000D02*
X163830000Y-97790000D01*
X163830000Y-97790000D02*
X168910000Y-97790000D01*
X148590000Y-104775000D02*
X155575000Y-97790000D01*
X173990000Y-102870000D02*
X168910000Y-97790000D01*
X173990000Y-102870000D02*
X181610000Y-102870000D01*
X168910000Y-81280000D02*
X161925000Y-81280000D01*
X168910000Y-81280000D02*
X179705000Y-81280000D01*
X179705000Y-81280000D02*
X182880000Y-78105000D01*
X182880000Y-62230000D02*
X182880000Y-78105000D01*
X161925000Y-81280000D02*
X160020000Y-83185000D01*
X118110000Y-89535000D02*
X118110000Y-93980000D01*
X142875000Y-94615000D02*
X144780000Y-92710000D01*
X118745000Y-94615000D02*
X142875000Y-94615000D01*
X118110000Y-93980000D02*
X118745000Y-94615000D01*
X137795000Y-99060000D02*
X137795000Y-102870000D01*
X136525000Y-102870000D02*
X136525000Y-99060000D01*
X113030000Y-93980000D02*
X114300000Y-95250000D01*
X111760000Y-85090000D02*
X111760000Y-90170000D01*
X144780000Y-95250000D02*
X147320000Y-92710000D01*
X142875000Y-95250000D02*
X144780000Y-95250000D01*
X114300000Y-95250000D02*
X142875000Y-95250000D01*
X129540000Y-85090000D02*
X129540000Y-86995000D01*
X139700000Y-90170000D02*
X142240000Y-92710000D01*
X132715000Y-90170000D02*
X139700000Y-90170000D01*
X129540000Y-86995000D02*
X132715000Y-90170000D01*
X160020000Y-49530000D02*
X160020000Y-40640000D01*
M02*
