G04 #@! TF.FileFunction,Soldermask,Top*
%FSLAX46Y46*%
G04 Gerber Fmt 4.6, Leading zero omitted, Abs format (unit mm)*
G04 Created by KiCad (PCBNEW 4.0.2+e4-6225~38~ubuntu14.04.1-stable) date Thu 16 Jun 2016 02:06:54 PM CEST*
%MOMM*%
G01*
G04 APERTURE LIST*
%ADD10C,0.100000*%
%ADD11C,2.178000*%
%ADD12O,2.000000X2.000000*%
%ADD13R,2.400000X2.300000*%
%ADD14C,2.300000*%
%ADD15R,2.178000X15.400000*%
%ADD16C,1.797000*%
%ADD17C,2.398980*%
G04 APERTURE END LIST*
D10*
D11*
X168275000Y-86360000D03*
X170815000Y-86360000D03*
X173355000Y-86360000D03*
X175895000Y-86360000D03*
X178435000Y-86360000D03*
X180975000Y-86360000D03*
X183515000Y-86360000D03*
X186055000Y-86360000D03*
X186055000Y-83820000D03*
X183515000Y-83820000D03*
X180975000Y-83820000D03*
X178435000Y-83820000D03*
X175895000Y-83820000D03*
X173355000Y-83820000D03*
X170815000Y-83820000D03*
X168275000Y-83820000D03*
D12*
X99060000Y-107950000D03*
X101600000Y-107950000D03*
X104140000Y-107950000D03*
X106680000Y-107950000D03*
X109220000Y-107950000D03*
X111760000Y-107950000D03*
X114300000Y-107950000D03*
X116840000Y-107950000D03*
X119380000Y-107950000D03*
X121920000Y-107950000D03*
X124460000Y-107950000D03*
X127000000Y-107950000D03*
X129540000Y-107950000D03*
X132080000Y-107950000D03*
X134620000Y-107950000D03*
X137160000Y-107950000D03*
X139700000Y-107950000D03*
X142240000Y-107950000D03*
X144780000Y-107950000D03*
X147320000Y-107950000D03*
X147320000Y-92710000D03*
X144780000Y-92710000D03*
X142240000Y-92710000D03*
X139700000Y-92710000D03*
X137160000Y-92710000D03*
X134620000Y-92710000D03*
X132080000Y-92710000D03*
X129540000Y-92710000D03*
X127000000Y-92710000D03*
X124460000Y-92710000D03*
X121920000Y-92710000D03*
X119380000Y-92710000D03*
X116840000Y-92710000D03*
X114300000Y-92710000D03*
X111760000Y-92710000D03*
X109220000Y-92710000D03*
X106680000Y-92710000D03*
X104140000Y-92710000D03*
X101600000Y-92710000D03*
X99060000Y-92710000D03*
X158115000Y-77470000D03*
X160655000Y-77470000D03*
X163195000Y-77470000D03*
X165735000Y-77470000D03*
X168275000Y-77470000D03*
X170815000Y-77470000D03*
X173355000Y-77470000D03*
X175895000Y-77470000D03*
X178435000Y-77470000D03*
X180975000Y-77470000D03*
X180975000Y-69850000D03*
X178435000Y-69850000D03*
X175895000Y-69850000D03*
X173355000Y-69850000D03*
X170815000Y-69850000D03*
X168275000Y-69850000D03*
X165735000Y-69850000D03*
X163195000Y-69850000D03*
X160655000Y-69850000D03*
X158115000Y-69850000D03*
D11*
X125095000Y-54610000D03*
X125095000Y-62230000D03*
D12*
X154940000Y-54610000D03*
X152400000Y-54610000D03*
X149860000Y-54610000D03*
X147320000Y-54610000D03*
X144780000Y-54610000D03*
X142240000Y-54610000D03*
X139700000Y-54610000D03*
X137160000Y-54610000D03*
X134620000Y-54610000D03*
X132080000Y-54610000D03*
X132080000Y-62230000D03*
X134620000Y-62230000D03*
X137160000Y-62230000D03*
X139700000Y-62230000D03*
X142240000Y-62230000D03*
X144780000Y-62230000D03*
X147320000Y-62230000D03*
X149860000Y-62230000D03*
X152400000Y-62230000D03*
X154940000Y-62230000D03*
D13*
X157480000Y-107950000D03*
D14*
X157480000Y-105410000D03*
D15*
X165100000Y-40640000D03*
X162560000Y-40640000D03*
X160020000Y-40640000D03*
X157480000Y-40640000D03*
X154940000Y-40640000D03*
X152400000Y-40640000D03*
X149860000Y-40640000D03*
X147320000Y-40640000D03*
X144780000Y-40640000D03*
X142240000Y-40640000D03*
X139700000Y-40640000D03*
X137160000Y-40640000D03*
X134620000Y-40640000D03*
X132080000Y-40640000D03*
X129540000Y-40640000D03*
X127000000Y-40640000D03*
X124460000Y-40640000D03*
X121920000Y-40640000D03*
D16*
X173990000Y-107950000D03*
X173990000Y-102870000D03*
X181610000Y-107950000D03*
X181610000Y-102870000D03*
D12*
X187960000Y-54610000D03*
X185420000Y-54610000D03*
X182880000Y-54610000D03*
X180340000Y-54610000D03*
X177800000Y-54610000D03*
X175260000Y-54610000D03*
X172720000Y-54610000D03*
X170180000Y-54610000D03*
X167640000Y-54610000D03*
X165100000Y-54610000D03*
X165100000Y-62230000D03*
X167640000Y-62230000D03*
X170180000Y-62230000D03*
X172720000Y-62230000D03*
X175260000Y-62230000D03*
X177800000Y-62230000D03*
X180340000Y-62230000D03*
X182880000Y-62230000D03*
X185420000Y-62230000D03*
X187960000Y-62230000D03*
X97790000Y-62230000D03*
X100330000Y-62230000D03*
X102870000Y-62230000D03*
X105410000Y-62230000D03*
X107950000Y-62230000D03*
X110490000Y-62230000D03*
X113030000Y-62230000D03*
X115570000Y-62230000D03*
X118110000Y-62230000D03*
X120650000Y-62230000D03*
X120650000Y-54610000D03*
X118110000Y-54610000D03*
X115570000Y-54610000D03*
X113030000Y-54610000D03*
X110490000Y-54610000D03*
X107950000Y-54610000D03*
X105410000Y-54610000D03*
X102870000Y-54610000D03*
X100330000Y-54610000D03*
X97790000Y-54610000D03*
X132080000Y-69850000D03*
X129540000Y-69850000D03*
X127000000Y-69850000D03*
X124460000Y-69850000D03*
X121920000Y-69850000D03*
X119380000Y-69850000D03*
X116840000Y-69850000D03*
X114300000Y-69850000D03*
X111760000Y-69850000D03*
X109220000Y-69850000D03*
X106680000Y-69850000D03*
X104140000Y-69850000D03*
X101600000Y-69850000D03*
X99060000Y-69850000D03*
X99060000Y-85090000D03*
X101600000Y-85090000D03*
X104140000Y-85090000D03*
X106680000Y-85090000D03*
X109220000Y-85090000D03*
X111760000Y-85090000D03*
X114300000Y-85090000D03*
X116840000Y-85090000D03*
X119380000Y-85090000D03*
X121920000Y-85090000D03*
X124460000Y-85090000D03*
X127000000Y-85090000D03*
X129540000Y-85090000D03*
X132080000Y-85090000D03*
D11*
X127635000Y-62230000D03*
X127635000Y-54610000D03*
X160655000Y-62230000D03*
X160655000Y-54610000D03*
X153670000Y-69850000D03*
X153670000Y-77470000D03*
X136525000Y-85090000D03*
X136525000Y-77470000D03*
X152400000Y-103505000D03*
X152400000Y-95885000D03*
X185420000Y-77470000D03*
X185420000Y-69850000D03*
D17*
X189230000Y-77470000D03*
X189230000Y-67310000D03*
X157480000Y-99695000D03*
X157480000Y-89535000D03*
X142240000Y-88900000D03*
X152400000Y-88900000D03*
M02*
