G04 #@! TF.FileFunction,Legend,Top*
%FSLAX46Y46*%
G04 Gerber Fmt 4.6, Leading zero omitted, Abs format (unit mm)*
G04 Created by KiCad (PCBNEW 4.0.2+e4-6225~38~ubuntu14.04.1-stable) date Thu 16 Jun 2016 02:06:54 PM CEST*
%MOMM*%
G01*
G04 APERTURE LIST*
%ADD10C,0.100000*%
%ADD11C,0.203200*%
%ADD12C,0.152400*%
%ADD13C,0.300000*%
%ADD14C,0.150000*%
G04 APERTURE END LIST*
D10*
D11*
X169672001Y-99471238D02*
X169575239Y-99519619D01*
X169381716Y-99519619D01*
X169284954Y-99471238D01*
X169236573Y-99374476D01*
X169236573Y-98987429D01*
X169284954Y-98890667D01*
X169381716Y-98842286D01*
X169575239Y-98842286D01*
X169672001Y-98890667D01*
X169720382Y-98987429D01*
X169720382Y-99084190D01*
X169236573Y-99180952D01*
X170155811Y-98842286D02*
X170155811Y-99519619D01*
X170155811Y-98939048D02*
X170204192Y-98890667D01*
X170300954Y-98842286D01*
X170446096Y-98842286D01*
X170542858Y-98890667D01*
X170591239Y-98987429D01*
X170591239Y-99519619D01*
X171510477Y-99519619D02*
X171510477Y-98503619D01*
X171510477Y-99471238D02*
X171413715Y-99519619D01*
X171220192Y-99519619D01*
X171123430Y-99471238D01*
X171075049Y-99422857D01*
X171026668Y-99326095D01*
X171026668Y-99035810D01*
X171075049Y-98939048D01*
X171123430Y-98890667D01*
X171220192Y-98842286D01*
X171413715Y-98842286D01*
X171510477Y-98890667D01*
X172139430Y-99519619D02*
X172042668Y-99471238D01*
X171994287Y-99374476D01*
X171994287Y-98503619D01*
X172671620Y-99519619D02*
X172574858Y-99471238D01*
X172526477Y-99422857D01*
X172478096Y-99326095D01*
X172478096Y-99035810D01*
X172526477Y-98939048D01*
X172574858Y-98890667D01*
X172671620Y-98842286D01*
X172816762Y-98842286D01*
X172913524Y-98890667D01*
X172961905Y-98939048D01*
X173010286Y-99035810D01*
X173010286Y-99326095D01*
X172961905Y-99422857D01*
X172913524Y-99471238D01*
X172816762Y-99519619D01*
X172671620Y-99519619D01*
X173397334Y-99471238D02*
X173494096Y-99519619D01*
X173687620Y-99519619D01*
X173784381Y-99471238D01*
X173832762Y-99374476D01*
X173832762Y-99326095D01*
X173784381Y-99229333D01*
X173687620Y-99180952D01*
X173542477Y-99180952D01*
X173445715Y-99132571D01*
X173397334Y-99035810D01*
X173397334Y-98987429D01*
X173445715Y-98890667D01*
X173542477Y-98842286D01*
X173687620Y-98842286D01*
X173784381Y-98890667D01*
X174268191Y-99422857D02*
X174316572Y-99471238D01*
X174268191Y-99519619D01*
X174219810Y-99471238D01*
X174268191Y-99422857D01*
X174268191Y-99519619D01*
X174752001Y-98842286D02*
X174752001Y-99519619D01*
X174752001Y-98939048D02*
X174800382Y-98890667D01*
X174897144Y-98842286D01*
X175042286Y-98842286D01*
X175139048Y-98890667D01*
X175187429Y-98987429D01*
X175187429Y-99519619D01*
X176058286Y-99471238D02*
X175961524Y-99519619D01*
X175768001Y-99519619D01*
X175671239Y-99471238D01*
X175622858Y-99374476D01*
X175622858Y-98987429D01*
X175671239Y-98890667D01*
X175768001Y-98842286D01*
X175961524Y-98842286D01*
X176058286Y-98890667D01*
X176106667Y-98987429D01*
X176106667Y-99084190D01*
X175622858Y-99180952D01*
X176396953Y-98842286D02*
X176784001Y-98842286D01*
X176542096Y-98503619D02*
X176542096Y-99374476D01*
X176590477Y-99471238D01*
X176687239Y-99519619D01*
X176784001Y-99519619D01*
X177848381Y-98455238D02*
X176977524Y-99761524D01*
X178041905Y-98842286D02*
X178428953Y-98842286D01*
X178187048Y-99519619D02*
X178187048Y-98648762D01*
X178235429Y-98552000D01*
X178332191Y-98503619D01*
X178428953Y-98503619D01*
X178912762Y-99519619D02*
X178816000Y-99471238D01*
X178767619Y-99374476D01*
X178767619Y-98503619D01*
X179735237Y-99519619D02*
X179735237Y-98987429D01*
X179686856Y-98890667D01*
X179590094Y-98842286D01*
X179396571Y-98842286D01*
X179299809Y-98890667D01*
X179735237Y-99471238D02*
X179638475Y-99519619D01*
X179396571Y-99519619D01*
X179299809Y-99471238D01*
X179251428Y-99374476D01*
X179251428Y-99277714D01*
X179299809Y-99180952D01*
X179396571Y-99132571D01*
X179638475Y-99132571D01*
X179735237Y-99084190D01*
X180170666Y-99471238D02*
X180267428Y-99519619D01*
X180460952Y-99519619D01*
X180557713Y-99471238D01*
X180606094Y-99374476D01*
X180606094Y-99326095D01*
X180557713Y-99229333D01*
X180460952Y-99180952D01*
X180315809Y-99180952D01*
X180219047Y-99132571D01*
X180170666Y-99035810D01*
X180170666Y-98987429D01*
X180219047Y-98890667D01*
X180315809Y-98842286D01*
X180460952Y-98842286D01*
X180557713Y-98890667D01*
X181041523Y-99519619D02*
X181041523Y-98503619D01*
X181476951Y-99519619D02*
X181476951Y-98987429D01*
X181428570Y-98890667D01*
X181331808Y-98842286D01*
X181186666Y-98842286D01*
X181089904Y-98890667D01*
X181041523Y-98939048D01*
X181960761Y-99519619D02*
X181960761Y-98842286D01*
X181960761Y-99035810D02*
X182009142Y-98939048D01*
X182057523Y-98890667D01*
X182154285Y-98842286D01*
X182251046Y-98842286D01*
X182734856Y-99519619D02*
X182638094Y-99471238D01*
X182589713Y-99422857D01*
X182541332Y-99326095D01*
X182541332Y-99035810D01*
X182589713Y-98939048D01*
X182638094Y-98890667D01*
X182734856Y-98842286D01*
X182879998Y-98842286D01*
X182976760Y-98890667D01*
X183025141Y-98939048D01*
X183073522Y-99035810D01*
X183073522Y-99326095D01*
X183025141Y-99422857D01*
X182976760Y-99471238D01*
X182879998Y-99519619D01*
X182734856Y-99519619D01*
X183508951Y-99519619D02*
X183508951Y-98842286D01*
X183508951Y-98939048D02*
X183557332Y-98890667D01*
X183654094Y-98842286D01*
X183799236Y-98842286D01*
X183895998Y-98890667D01*
X183944379Y-98987429D01*
X183944379Y-99519619D01*
X183944379Y-98987429D02*
X183992760Y-98890667D01*
X184089522Y-98842286D01*
X184234665Y-98842286D01*
X184331427Y-98890667D01*
X184379808Y-98987429D01*
X184379808Y-99519619D01*
X184911999Y-99519619D02*
X185105523Y-99519619D01*
X185202284Y-99471238D01*
X185250665Y-99422857D01*
X185347427Y-99277714D01*
X185395808Y-99084190D01*
X185395808Y-98697143D01*
X185347427Y-98600381D01*
X185299046Y-98552000D01*
X185202284Y-98503619D01*
X185008761Y-98503619D01*
X184911999Y-98552000D01*
X184863618Y-98600381D01*
X184815237Y-98697143D01*
X184815237Y-98939048D01*
X184863618Y-99035810D01*
X184911999Y-99084190D01*
X185008761Y-99132571D01*
X185202284Y-99132571D01*
X185299046Y-99084190D01*
X185347427Y-99035810D01*
X185395808Y-98939048D01*
X185879618Y-99519619D02*
X186073142Y-99519619D01*
X186169903Y-99471238D01*
X186218284Y-99422857D01*
X186315046Y-99277714D01*
X186363427Y-99084190D01*
X186363427Y-98697143D01*
X186315046Y-98600381D01*
X186266665Y-98552000D01*
X186169903Y-98503619D01*
X185976380Y-98503619D01*
X185879618Y-98552000D01*
X185831237Y-98600381D01*
X185782856Y-98697143D01*
X185782856Y-98939048D01*
X185831237Y-99035810D01*
X185879618Y-99084190D01*
X185976380Y-99132571D01*
X186169903Y-99132571D01*
X186266665Y-99084190D01*
X186315046Y-99035810D01*
X186363427Y-98939048D01*
D12*
X191479714Y-108603143D02*
X191116857Y-108857143D01*
X191479714Y-109038571D02*
X190717714Y-109038571D01*
X190717714Y-108748286D01*
X190754000Y-108675714D01*
X190790286Y-108639429D01*
X190862857Y-108603143D01*
X190971714Y-108603143D01*
X191044286Y-108639429D01*
X191080571Y-108675714D01*
X191116857Y-108748286D01*
X191116857Y-109038571D01*
X191443429Y-107986286D02*
X191479714Y-108058857D01*
X191479714Y-108204000D01*
X191443429Y-108276571D01*
X191370857Y-108312857D01*
X191080571Y-108312857D01*
X191008000Y-108276571D01*
X190971714Y-108204000D01*
X190971714Y-108058857D01*
X191008000Y-107986286D01*
X191080571Y-107950000D01*
X191153143Y-107950000D01*
X191225714Y-108312857D01*
X190971714Y-107696000D02*
X191479714Y-107514571D01*
X190971714Y-107333143D01*
X191407143Y-107042857D02*
X191443429Y-107006572D01*
X191479714Y-107042857D01*
X191443429Y-107079143D01*
X191407143Y-107042857D01*
X191479714Y-107042857D01*
X190790286Y-106135715D02*
X190754000Y-106099429D01*
X190717714Y-106026858D01*
X190717714Y-105845429D01*
X190754000Y-105772858D01*
X190790286Y-105736572D01*
X190862857Y-105700287D01*
X190935429Y-105700287D01*
X191044286Y-105736572D01*
X191479714Y-106172001D01*
X191479714Y-105700287D01*
D11*
X169647810Y-97366667D02*
X169599430Y-97318286D01*
X169502668Y-97173143D01*
X169454287Y-97076381D01*
X169405906Y-96931238D01*
X169357525Y-96689333D01*
X169357525Y-96495810D01*
X169405906Y-96253905D01*
X169454287Y-96108762D01*
X169502668Y-96012000D01*
X169599430Y-95866857D01*
X169647810Y-95818476D01*
X170470286Y-96931238D02*
X170373524Y-96979619D01*
X170180001Y-96979619D01*
X170083239Y-96931238D01*
X170034858Y-96882857D01*
X169986477Y-96786095D01*
X169986477Y-96495810D01*
X170034858Y-96399048D01*
X170083239Y-96350667D01*
X170180001Y-96302286D01*
X170373524Y-96302286D01*
X170470286Y-96350667D01*
X170808953Y-97366667D02*
X170857334Y-97318286D01*
X170954096Y-97173143D01*
X171002477Y-97076381D01*
X171050858Y-96931238D01*
X171099239Y-96689333D01*
X171099239Y-96495810D01*
X171050858Y-96253905D01*
X171002477Y-96108762D01*
X170954096Y-96012000D01*
X170857334Y-95866857D01*
X170808953Y-95818476D01*
X172308762Y-96060381D02*
X172357143Y-96012000D01*
X172453905Y-95963619D01*
X172695809Y-95963619D01*
X172792571Y-96012000D01*
X172840952Y-96060381D01*
X172889333Y-96157143D01*
X172889333Y-96253905D01*
X172840952Y-96399048D01*
X172260381Y-96979619D01*
X172889333Y-96979619D01*
X173518286Y-95963619D02*
X173615047Y-95963619D01*
X173711809Y-96012000D01*
X173760190Y-96060381D01*
X173808571Y-96157143D01*
X173856952Y-96350667D01*
X173856952Y-96592571D01*
X173808571Y-96786095D01*
X173760190Y-96882857D01*
X173711809Y-96931238D01*
X173615047Y-96979619D01*
X173518286Y-96979619D01*
X173421524Y-96931238D01*
X173373143Y-96882857D01*
X173324762Y-96786095D01*
X173276381Y-96592571D01*
X173276381Y-96350667D01*
X173324762Y-96157143D01*
X173373143Y-96060381D01*
X173421524Y-96012000D01*
X173518286Y-95963619D01*
X174824571Y-96979619D02*
X174244000Y-96979619D01*
X174534286Y-96979619D02*
X174534286Y-95963619D01*
X174437524Y-96108762D01*
X174340762Y-96205524D01*
X174244000Y-96253905D01*
X175695428Y-95963619D02*
X175501905Y-95963619D01*
X175405143Y-96012000D01*
X175356762Y-96060381D01*
X175260000Y-96205524D01*
X175211619Y-96399048D01*
X175211619Y-96786095D01*
X175260000Y-96882857D01*
X175308381Y-96931238D01*
X175405143Y-96979619D01*
X175598666Y-96979619D01*
X175695428Y-96931238D01*
X175743809Y-96882857D01*
X175792190Y-96786095D01*
X175792190Y-96544190D01*
X175743809Y-96447429D01*
X175695428Y-96399048D01*
X175598666Y-96350667D01*
X175405143Y-96350667D01*
X175308381Y-96399048D01*
X175260000Y-96447429D01*
X175211619Y-96544190D01*
X177582285Y-96979619D02*
X177243619Y-96495810D01*
X177001714Y-96979619D02*
X177001714Y-95963619D01*
X177388761Y-95963619D01*
X177485523Y-96012000D01*
X177533904Y-96060381D01*
X177582285Y-96157143D01*
X177582285Y-96302286D01*
X177533904Y-96399048D01*
X177485523Y-96447429D01*
X177388761Y-96495810D01*
X177001714Y-96495810D01*
X178017714Y-96882857D02*
X178066095Y-96931238D01*
X178017714Y-96979619D01*
X177969333Y-96931238D01*
X178017714Y-96882857D01*
X178017714Y-96979619D01*
X179614285Y-96447429D02*
X179759428Y-96495810D01*
X179807809Y-96544190D01*
X179856190Y-96640952D01*
X179856190Y-96786095D01*
X179807809Y-96882857D01*
X179759428Y-96931238D01*
X179662666Y-96979619D01*
X179275619Y-96979619D01*
X179275619Y-95963619D01*
X179614285Y-95963619D01*
X179711047Y-96012000D01*
X179759428Y-96060381D01*
X179807809Y-96157143D01*
X179807809Y-96253905D01*
X179759428Y-96350667D01*
X179711047Y-96399048D01*
X179614285Y-96447429D01*
X179275619Y-96447429D01*
X180678666Y-96931238D02*
X180581904Y-96979619D01*
X180388381Y-96979619D01*
X180291619Y-96931238D01*
X180243238Y-96834476D01*
X180243238Y-96447429D01*
X180291619Y-96350667D01*
X180388381Y-96302286D01*
X180581904Y-96302286D01*
X180678666Y-96350667D01*
X180727047Y-96447429D01*
X180727047Y-96544190D01*
X180243238Y-96640952D01*
X181162476Y-96302286D02*
X181162476Y-96979619D01*
X181162476Y-96399048D02*
X181210857Y-96350667D01*
X181307619Y-96302286D01*
X181452761Y-96302286D01*
X181549523Y-96350667D01*
X181597904Y-96447429D01*
X181597904Y-96979619D01*
X181984952Y-96302286D02*
X182517142Y-96302286D01*
X181984952Y-96979619D01*
X182517142Y-96979619D01*
X182904190Y-96979619D02*
X182904190Y-96302286D01*
X182904190Y-95963619D02*
X182855809Y-96012000D01*
X182904190Y-96060381D01*
X182952571Y-96012000D01*
X182904190Y-95963619D01*
X182904190Y-96060381D01*
X183388000Y-96302286D02*
X183388000Y-96979619D01*
X183388000Y-96399048D02*
X183436381Y-96350667D01*
X183533143Y-96302286D01*
X183678285Y-96302286D01*
X183775047Y-96350667D01*
X183823428Y-96447429D01*
X183823428Y-96979619D01*
X184742666Y-96302286D02*
X184742666Y-97124762D01*
X184694285Y-97221524D01*
X184645904Y-97269905D01*
X184549143Y-97318286D01*
X184404000Y-97318286D01*
X184307238Y-97269905D01*
X184742666Y-96931238D02*
X184645904Y-96979619D01*
X184452381Y-96979619D01*
X184355619Y-96931238D01*
X184307238Y-96882857D01*
X184258857Y-96786095D01*
X184258857Y-96495810D01*
X184307238Y-96399048D01*
X184355619Y-96350667D01*
X184452381Y-96302286D01*
X184645904Y-96302286D01*
X184742666Y-96350667D01*
X185613523Y-96931238D02*
X185516761Y-96979619D01*
X185323238Y-96979619D01*
X185226476Y-96931238D01*
X185178095Y-96834476D01*
X185178095Y-96447429D01*
X185226476Y-96350667D01*
X185323238Y-96302286D01*
X185516761Y-96302286D01*
X185613523Y-96350667D01*
X185661904Y-96447429D01*
X185661904Y-96544190D01*
X185178095Y-96640952D01*
X186097333Y-96979619D02*
X186097333Y-96302286D01*
X186097333Y-96495810D02*
X186145714Y-96399048D01*
X186194095Y-96350667D01*
X186290857Y-96302286D01*
X186387618Y-96302286D01*
D13*
X171264286Y-92602857D02*
X170764286Y-92602857D01*
X170764286Y-93388571D02*
X170764286Y-91888571D01*
X171478572Y-91888571D01*
X172264286Y-93388571D02*
X172121428Y-93317143D01*
X172050000Y-93174286D01*
X172050000Y-91888571D01*
X173478571Y-93388571D02*
X173478571Y-92602857D01*
X173407142Y-92460000D01*
X173264285Y-92388571D01*
X172978571Y-92388571D01*
X172835714Y-92460000D01*
X173478571Y-93317143D02*
X173335714Y-93388571D01*
X172978571Y-93388571D01*
X172835714Y-93317143D01*
X172764285Y-93174286D01*
X172764285Y-93031429D01*
X172835714Y-92888571D01*
X172978571Y-92817143D01*
X173335714Y-92817143D01*
X173478571Y-92745714D01*
X174121428Y-93317143D02*
X174264285Y-93388571D01*
X174550000Y-93388571D01*
X174692857Y-93317143D01*
X174764285Y-93174286D01*
X174764285Y-93102857D01*
X174692857Y-92960000D01*
X174550000Y-92888571D01*
X174335714Y-92888571D01*
X174192857Y-92817143D01*
X174121428Y-92674286D01*
X174121428Y-92602857D01*
X174192857Y-92460000D01*
X174335714Y-92388571D01*
X174550000Y-92388571D01*
X174692857Y-92460000D01*
X175407143Y-93388571D02*
X175407143Y-91888571D01*
X176050000Y-93388571D02*
X176050000Y-92602857D01*
X175978571Y-92460000D01*
X175835714Y-92388571D01*
X175621429Y-92388571D01*
X175478571Y-92460000D01*
X175407143Y-92531429D01*
X177621429Y-93388571D02*
X177121429Y-92674286D01*
X176764286Y-93388571D02*
X176764286Y-91888571D01*
X177335714Y-91888571D01*
X177478572Y-91960000D01*
X177550000Y-92031429D01*
X177621429Y-92174286D01*
X177621429Y-92388571D01*
X177550000Y-92531429D01*
X177478572Y-92602857D01*
X177335714Y-92674286D01*
X176764286Y-92674286D01*
X178550000Y-91888571D02*
X178835714Y-91888571D01*
X178978572Y-91960000D01*
X179121429Y-92102857D01*
X179192857Y-92388571D01*
X179192857Y-92888571D01*
X179121429Y-93174286D01*
X178978572Y-93317143D01*
X178835714Y-93388571D01*
X178550000Y-93388571D01*
X178407143Y-93317143D01*
X178264286Y-93174286D01*
X178192857Y-92888571D01*
X178192857Y-92388571D01*
X178264286Y-92102857D01*
X178407143Y-91960000D01*
X178550000Y-91888571D01*
X179835715Y-93388571D02*
X179835715Y-91888571D01*
X180335715Y-92960000D01*
X180835715Y-91888571D01*
X180835715Y-93388571D01*
X182764286Y-93388571D02*
X183050001Y-93388571D01*
X183192858Y-93317143D01*
X183264286Y-93245714D01*
X183407144Y-93031429D01*
X183478572Y-92745714D01*
X183478572Y-92174286D01*
X183407144Y-92031429D01*
X183335715Y-91960000D01*
X183192858Y-91888571D01*
X182907144Y-91888571D01*
X182764286Y-91960000D01*
X182692858Y-92031429D01*
X182621429Y-92174286D01*
X182621429Y-92531429D01*
X182692858Y-92674286D01*
X182764286Y-92745714D01*
X182907144Y-92817143D01*
X183192858Y-92817143D01*
X183335715Y-92745714D01*
X183407144Y-92674286D01*
X183478572Y-92531429D01*
X184192857Y-93388571D02*
X184478572Y-93388571D01*
X184621429Y-93317143D01*
X184692857Y-93245714D01*
X184835715Y-93031429D01*
X184907143Y-92745714D01*
X184907143Y-92174286D01*
X184835715Y-92031429D01*
X184764286Y-91960000D01*
X184621429Y-91888571D01*
X184335715Y-91888571D01*
X184192857Y-91960000D01*
X184121429Y-92031429D01*
X184050000Y-92174286D01*
X184050000Y-92531429D01*
X184121429Y-92674286D01*
X184192857Y-92745714D01*
X184335715Y-92817143D01*
X184621429Y-92817143D01*
X184764286Y-92745714D01*
X184835715Y-92674286D01*
X184907143Y-92531429D01*
D14*
X161925000Y-82550000D02*
X161925000Y-88900000D01*
X192405000Y-82550000D02*
X192405000Y-88900000D01*
X180975000Y-88900000D02*
X178435000Y-88900000D01*
X184785000Y-88900000D02*
X182245000Y-88900000D01*
X188595000Y-88900000D02*
X186055000Y-88900000D01*
X192405000Y-88900000D02*
X189865000Y-88900000D01*
X173355000Y-88900000D02*
X175895000Y-88900000D01*
X169545000Y-88900000D02*
X172085000Y-88900000D01*
X165735000Y-88900000D02*
X168275000Y-88900000D01*
X161925000Y-88900000D02*
X164465000Y-88900000D01*
X161925000Y-82550000D02*
X192405000Y-82550000D01*
X191661051Y-85090000D02*
G75*
G03X191661051Y-85090000I-1796051J0D01*
G01*
X166261051Y-85090000D02*
G75*
G03X166261051Y-85090000I-1796051J0D01*
G01*
X96765000Y-107815000D02*
X98035000Y-107815000D01*
X96765000Y-92845000D02*
X98035000Y-92845000D01*
X149615000Y-92845000D02*
X148345000Y-92845000D01*
X149615000Y-107815000D02*
X148345000Y-107815000D01*
X96765000Y-107815000D02*
X96765000Y-92845000D01*
X149615000Y-107815000D02*
X149615000Y-92845000D01*
X98035000Y-107815000D02*
X98035000Y-108750000D01*
X155820000Y-77335000D02*
X157090000Y-77335000D01*
X155820000Y-69985000D02*
X157090000Y-69985000D01*
X183270000Y-69985000D02*
X182000000Y-69985000D01*
X183270000Y-77335000D02*
X182000000Y-77335000D01*
X155820000Y-77335000D02*
X155820000Y-69985000D01*
X183270000Y-77335000D02*
X183270000Y-69985000D01*
X157090000Y-77335000D02*
X157090000Y-78270000D01*
X124079000Y-58166000D02*
X126111000Y-58166000D01*
X124079000Y-58674000D02*
X125857000Y-58674000D01*
X125857000Y-58674000D02*
X126111000Y-58674000D01*
X125095000Y-58166000D02*
X125095000Y-56388000D01*
X125095000Y-60452000D02*
X125095000Y-58674000D01*
X157235000Y-54745000D02*
X155965000Y-54745000D01*
X157235000Y-62095000D02*
X155965000Y-62095000D01*
X129785000Y-62095000D02*
X131055000Y-62095000D01*
X129785000Y-54745000D02*
X131055000Y-54745000D01*
X157235000Y-54745000D02*
X157235000Y-62095000D01*
X129785000Y-54745000D02*
X129785000Y-62095000D01*
X155965000Y-54745000D02*
X155965000Y-53810000D01*
X159004904Y-109164888D02*
G75*
G03X155980000Y-109180000I-1524904J2484888D01*
G01*
X158980000Y-109180000D02*
X155980000Y-109180000D01*
X159997936Y-106680000D02*
G75*
G03X159997936Y-106680000I-2517936J0D01*
G01*
X180340000Y-105410000D02*
G75*
G03X180340000Y-105410000I-2540000J0D01*
G01*
X181610000Y-109220000D02*
X173990000Y-109220000D01*
X173990000Y-109220000D02*
X173990000Y-101600000D01*
X173990000Y-101600000D02*
X181610000Y-101600000D01*
X181610000Y-109220000D02*
X181610000Y-101600000D01*
X190255000Y-54745000D02*
X188985000Y-54745000D01*
X190255000Y-62095000D02*
X188985000Y-62095000D01*
X162805000Y-62095000D02*
X164075000Y-62095000D01*
X162805000Y-54745000D02*
X164075000Y-54745000D01*
X190255000Y-54745000D02*
X190255000Y-62095000D01*
X162805000Y-54745000D02*
X162805000Y-62095000D01*
X188985000Y-54745000D02*
X188985000Y-53810000D01*
X95495000Y-62095000D02*
X96765000Y-62095000D01*
X95495000Y-54745000D02*
X96765000Y-54745000D01*
X122945000Y-54745000D02*
X121675000Y-54745000D01*
X122945000Y-62095000D02*
X121675000Y-62095000D01*
X95495000Y-62095000D02*
X95495000Y-54745000D01*
X122945000Y-62095000D02*
X122945000Y-54745000D01*
X96765000Y-62095000D02*
X96765000Y-63030000D01*
X134375000Y-69985000D02*
X133105000Y-69985000D01*
X134375000Y-84955000D02*
X133105000Y-84955000D01*
X96765000Y-84955000D02*
X98035000Y-84955000D01*
X96765000Y-69985000D02*
X98035000Y-69985000D01*
X134375000Y-69985000D02*
X134375000Y-84955000D01*
X96765000Y-69985000D02*
X96765000Y-84955000D01*
X133105000Y-69985000D02*
X133105000Y-69050000D01*
X128651000Y-58674000D02*
X126619000Y-58674000D01*
X128651000Y-58166000D02*
X126873000Y-58166000D01*
X126873000Y-58166000D02*
X126619000Y-58166000D01*
X127635000Y-58674000D02*
X127635000Y-60452000D01*
X127635000Y-56388000D02*
X127635000Y-58166000D01*
X161671000Y-58674000D02*
X159639000Y-58674000D01*
X161671000Y-58166000D02*
X159893000Y-58166000D01*
X159893000Y-58166000D02*
X159639000Y-58166000D01*
X160655000Y-58674000D02*
X160655000Y-60452000D01*
X160655000Y-56388000D02*
X160655000Y-58166000D01*
X152654000Y-73406000D02*
X154686000Y-73406000D01*
X152654000Y-73914000D02*
X154432000Y-73914000D01*
X154432000Y-73914000D02*
X154686000Y-73914000D01*
X153670000Y-73406000D02*
X153670000Y-71628000D01*
X153670000Y-75692000D02*
X153670000Y-73914000D01*
X137541000Y-81534000D02*
X135509000Y-81534000D01*
X137541000Y-81026000D02*
X135763000Y-81026000D01*
X135763000Y-81026000D02*
X135509000Y-81026000D01*
X136525000Y-81534000D02*
X136525000Y-83312000D01*
X136525000Y-79248000D02*
X136525000Y-81026000D01*
X153416000Y-99949000D02*
X151384000Y-99949000D01*
X153416000Y-99441000D02*
X151638000Y-99441000D01*
X151638000Y-99441000D02*
X151384000Y-99441000D01*
X152400000Y-99949000D02*
X152400000Y-101727000D01*
X152400000Y-97663000D02*
X152400000Y-99441000D01*
X186436000Y-73914000D02*
X184404000Y-73914000D01*
X186436000Y-73406000D02*
X184658000Y-73406000D01*
X184658000Y-73406000D02*
X184404000Y-73406000D01*
X185420000Y-73914000D02*
X185420000Y-75692000D01*
X185420000Y-71628000D02*
X185420000Y-73406000D01*
X145280380Y-69245480D02*
X139379960Y-75145900D01*
X139679680Y-73845420D02*
X140180060Y-73345040D01*
X144279620Y-72245220D02*
X143979900Y-72544940D01*
X142280640Y-75244960D02*
X142478760Y-75044300D01*
X141279880Y-70246240D02*
X141480540Y-70045580D01*
X140779500Y-70744080D02*
X140380720Y-71145400D01*
X141780260Y-70744080D02*
X142079980Y-70444360D01*
X142781020Y-70744080D02*
X143278860Y-70246240D01*
X144780000Y-68745100D02*
X144980660Y-68544440D01*
X145280380Y-69245480D02*
X145580100Y-68945760D01*
X145280380Y-70246240D02*
X145780760Y-69745860D01*
X146778980Y-70744080D02*
X146880580Y-70645020D01*
X145780760Y-70744080D02*
X146179540Y-70345300D01*
X148280120Y-70246240D02*
X148579840Y-69943980D01*
X148780500Y-70744080D02*
X149080220Y-70444360D01*
X140779500Y-75745340D02*
X140479780Y-76045060D01*
X142280640Y-74244200D02*
X142580360Y-73944480D01*
X140180060Y-78244700D02*
X139979400Y-78445360D01*
X142280640Y-76245720D02*
X142781020Y-75745340D01*
X140779500Y-78745080D02*
X140578840Y-78945740D01*
X142781020Y-76746100D02*
X143278860Y-76245720D01*
X142781020Y-77744320D02*
X143179800Y-77345540D01*
X148280120Y-73245980D02*
X148780500Y-72745600D01*
X148780500Y-73743820D02*
X149080220Y-73444100D01*
X148280120Y-77243940D02*
X148678900Y-76845160D01*
X150279100Y-74244200D02*
X150680420Y-73845420D01*
X148780500Y-77744320D02*
X147779740Y-78745080D01*
X148280120Y-77243940D02*
X147279360Y-78244700D01*
X150279100Y-74244200D02*
X146281140Y-78244700D01*
X149781260Y-73743820D02*
X146281140Y-77243940D01*
X148780500Y-73743820D02*
X145780760Y-76746100D01*
X142781020Y-77744320D02*
X142280640Y-78244700D01*
X142781020Y-76746100D02*
X140779500Y-78745080D01*
X142280640Y-76245720D02*
X140279120Y-78244700D01*
X142280640Y-75244960D02*
X140779500Y-76746100D01*
X142280640Y-74244200D02*
X140779500Y-75745340D01*
X144780000Y-68745100D02*
X143779240Y-69745860D01*
X141279880Y-70246240D02*
X140779500Y-70744080D01*
X141780260Y-70744080D02*
X140779500Y-71744840D01*
X139778740Y-73743820D02*
X138780520Y-74744580D01*
X142781020Y-70744080D02*
X140279120Y-73245980D01*
X145280380Y-70246240D02*
X140279120Y-75244960D01*
X148280120Y-73245980D02*
X146778980Y-74744580D01*
X148280120Y-72245220D02*
X146778980Y-73743820D01*
X145780760Y-70744080D02*
X144279620Y-72245220D01*
X148780500Y-70744080D02*
X146281140Y-73245980D01*
X148280120Y-70246240D02*
X145780760Y-72745600D01*
X146778980Y-70744080D02*
X145280380Y-72245220D01*
X149580600Y-82544920D02*
X149580600Y-83144360D01*
X148079460Y-81445100D02*
X148879560Y-84744560D01*
X148879560Y-84744560D02*
X149080220Y-84744560D01*
X149080220Y-84744560D02*
X149479000Y-83345020D01*
X149479000Y-83345020D02*
X149580600Y-83345020D01*
X149580600Y-83345020D02*
X150080980Y-84744560D01*
X150080980Y-84744560D02*
X150180040Y-84744560D01*
X150180040Y-84744560D02*
X150980140Y-81544160D01*
X150980140Y-81544160D02*
X150779480Y-81544160D01*
X150779480Y-81544160D02*
X150080980Y-84145120D01*
X150080980Y-84145120D02*
X149679660Y-82344260D01*
X149679660Y-82344260D02*
X149479000Y-82344260D01*
X149479000Y-82344260D02*
X148879560Y-84145120D01*
X148879560Y-84145120D02*
X148280120Y-81445100D01*
X148280120Y-81445100D02*
X148079460Y-81445100D01*
X145379440Y-82946240D02*
X146880580Y-82946240D01*
X146880580Y-82946240D02*
X146880580Y-83144360D01*
X146880580Y-83144360D02*
X145481040Y-83144360D01*
X146979640Y-81544160D02*
X146979640Y-84744560D01*
X146979640Y-84744560D02*
X147180300Y-84744560D01*
X147180300Y-84744560D02*
X147180300Y-81544160D01*
X147180300Y-81544160D02*
X146979640Y-81544160D01*
X145481040Y-81445100D02*
X145379440Y-81445100D01*
X145280380Y-81445100D02*
X145280380Y-84744560D01*
X145280380Y-84744560D02*
X145481040Y-84744560D01*
X145481040Y-84744560D02*
X145481040Y-81445100D01*
X144381220Y-81744820D02*
X144279620Y-81645760D01*
X144279620Y-81645760D02*
X143880840Y-81544160D01*
X143880840Y-81544160D02*
X143380460Y-81445100D01*
X143380460Y-81445100D02*
X142679420Y-81645760D01*
X142679420Y-81645760D02*
X142379700Y-81945480D01*
X142379700Y-81945480D02*
X142280640Y-82445860D01*
X142280640Y-82445860D02*
X142379700Y-82844640D01*
X142379700Y-82844640D02*
X142781020Y-83144360D01*
X142781020Y-83144360D02*
X143278860Y-83345020D01*
X143278860Y-83345020D02*
X143680180Y-83444080D01*
X143680180Y-83444080D02*
X143880840Y-83644740D01*
X143880840Y-83644740D02*
X143979900Y-83944460D01*
X143979900Y-83944460D02*
X143880840Y-84244180D01*
X143880840Y-84244180D02*
X143581120Y-84444840D01*
X143581120Y-84444840D02*
X143179800Y-84444840D01*
X143179800Y-84444840D02*
X142679420Y-84444840D01*
X142679420Y-84444840D02*
X142379700Y-84345780D01*
X142379700Y-84345780D02*
X142179040Y-84444840D01*
X142179040Y-84444840D02*
X142478760Y-84645500D01*
X142478760Y-84645500D02*
X143080740Y-84744560D01*
X143080740Y-84744560D02*
X143680180Y-84744560D01*
X143680180Y-84744560D02*
X144078960Y-84444840D01*
X144078960Y-84444840D02*
X144180560Y-83944460D01*
X144180560Y-83944460D02*
X144180560Y-83644740D01*
X144180560Y-83644740D02*
X143979900Y-83345020D01*
X143979900Y-83345020D02*
X143479520Y-83144360D01*
X143479520Y-83144360D02*
X142979140Y-82946240D01*
X142979140Y-82946240D02*
X142580360Y-82643980D01*
X142580360Y-82643980D02*
X142478760Y-82344260D01*
X142478760Y-82344260D02*
X142679420Y-82044540D01*
X142679420Y-82044540D02*
X143080740Y-81744820D01*
X143080740Y-81744820D02*
X143680180Y-81744820D01*
X143680180Y-81744820D02*
X144078960Y-81843880D01*
X144078960Y-81843880D02*
X144381220Y-81945480D01*
X140279120Y-81843880D02*
X139979400Y-81843880D01*
X139979400Y-81843880D02*
X139580620Y-82146140D01*
X139580620Y-82146140D02*
X139479020Y-82643980D01*
X139479020Y-82643980D02*
X139479020Y-83444080D01*
X139479020Y-83444080D02*
X139580620Y-83944460D01*
X139580620Y-83944460D02*
X139778740Y-84244180D01*
X139778740Y-84244180D02*
X140180060Y-84444840D01*
X140180060Y-84444840D02*
X140578840Y-84444840D01*
X140578840Y-84444840D02*
X140980160Y-84145120D01*
X140980160Y-84145120D02*
X141180820Y-83444080D01*
X141180820Y-83444080D02*
X141180820Y-82643980D01*
X141180820Y-82643980D02*
X140980160Y-82245200D01*
X140980160Y-82245200D02*
X140779500Y-82044540D01*
X140779500Y-82044540D02*
X140380720Y-81843880D01*
X140279120Y-81544160D02*
X139880340Y-81645760D01*
X139880340Y-81645760D02*
X139580620Y-81744820D01*
X139580620Y-81744820D02*
X139280900Y-82245200D01*
X139280900Y-82245200D02*
X139179300Y-82844640D01*
X139179300Y-82844640D02*
X139280900Y-83944460D01*
X139280900Y-83944460D02*
X139580620Y-84543900D01*
X139580620Y-84543900D02*
X140180060Y-84744560D01*
X140180060Y-84744560D02*
X140881100Y-84645500D01*
X140881100Y-84645500D02*
X141279880Y-84046060D01*
X141279880Y-84046060D02*
X141378940Y-83345020D01*
X141378940Y-83345020D02*
X141378940Y-82643980D01*
X141378940Y-82643980D02*
X141180820Y-82044540D01*
X141180820Y-82044540D02*
X140779500Y-81645760D01*
X140779500Y-81645760D02*
X140279120Y-81544160D01*
X143680180Y-76446380D02*
X143179800Y-76045060D01*
X143179800Y-76045060D02*
X142781020Y-75544680D01*
X142781020Y-75544680D02*
X142580360Y-75044300D01*
X142580360Y-75044300D02*
X142580360Y-74345800D01*
X142580360Y-74345800D02*
X142681960Y-73746360D01*
X142681960Y-73746360D02*
X143080740Y-73144380D01*
X143080740Y-73144380D02*
X143880840Y-72544940D01*
X143880840Y-72544940D02*
X144680940Y-72445880D01*
X144680940Y-72445880D02*
X145381980Y-72445880D01*
X145381980Y-72445880D02*
X146080480Y-72946260D01*
X146080480Y-72946260D02*
X146580860Y-73644760D01*
X146580860Y-73644760D02*
X146781520Y-74244200D01*
X146781520Y-74244200D02*
X146781520Y-74945240D01*
X146781520Y-74945240D02*
X146481800Y-75745340D01*
X146481800Y-75745340D02*
X145981420Y-76245720D01*
X145981420Y-76245720D02*
X145681700Y-76446380D01*
X145681700Y-76545440D02*
X146431000Y-78795880D01*
X146431000Y-78795880D02*
X147281900Y-78346300D01*
X147281900Y-78346300D02*
X148579840Y-79344520D01*
X148579840Y-79344520D02*
X149580600Y-78244700D01*
X149580600Y-78244700D02*
X148681440Y-76944220D01*
X148681440Y-76944220D02*
X149181820Y-75646280D01*
X149181820Y-75646280D02*
X149181820Y-75445620D01*
X149181820Y-75445620D02*
X150782020Y-75145900D01*
X150782020Y-75145900D02*
X150782020Y-73644760D01*
X150782020Y-73644760D02*
X149181820Y-73446640D01*
X149181820Y-73446640D02*
X148579840Y-72044560D01*
X148579840Y-72044560D02*
X149481540Y-70645020D01*
X149481540Y-70645020D02*
X148381720Y-69644260D01*
X148381720Y-69644260D02*
X147081240Y-70545960D01*
X147081240Y-70545960D02*
X145879820Y-70045580D01*
X145879820Y-70045580D02*
X145481040Y-68445380D01*
X145481040Y-68445380D02*
X143979900Y-68445380D01*
X143979900Y-68445380D02*
X143680180Y-70045580D01*
X143680180Y-70045580D02*
X142379700Y-70545960D01*
X142379700Y-70545960D02*
X140980160Y-69545200D01*
X140980160Y-69545200D02*
X139880340Y-70645020D01*
X139880340Y-70645020D02*
X140881100Y-71945500D01*
X140881100Y-71945500D02*
X140180060Y-73446640D01*
X140180060Y-73446640D02*
X138579860Y-73644760D01*
X138579860Y-73644760D02*
X138480800Y-75044300D01*
X138480800Y-75044300D02*
X140081000Y-75346560D01*
X140081000Y-75346560D02*
X140680440Y-76944220D01*
X140680440Y-76944220D02*
X139781280Y-78244700D01*
X139781280Y-78244700D02*
X140782040Y-79344520D01*
X140782040Y-79344520D02*
X142079980Y-78445360D01*
X142079980Y-78445360D02*
X142781020Y-78745080D01*
X142781020Y-78745080D02*
X143680180Y-76446380D01*
X187960000Y-74930000D02*
X187960000Y-69850000D01*
X187960000Y-69850000D02*
X190500000Y-69850000D01*
X190500000Y-69850000D02*
X190500000Y-74930000D01*
X190500000Y-74930000D02*
X187960000Y-74930000D01*
X189230000Y-74930000D02*
X189230000Y-76200000D01*
X189230000Y-69850000D02*
X189230000Y-68580000D01*
X156210000Y-97155000D02*
X156210000Y-92075000D01*
X156210000Y-92075000D02*
X158750000Y-92075000D01*
X158750000Y-92075000D02*
X158750000Y-97155000D01*
X158750000Y-97155000D02*
X156210000Y-97155000D01*
X157480000Y-97155000D02*
X157480000Y-98425000D01*
X157480000Y-92075000D02*
X157480000Y-90805000D01*
X144780000Y-87630000D02*
X149860000Y-87630000D01*
X149860000Y-87630000D02*
X149860000Y-90170000D01*
X149860000Y-90170000D02*
X144780000Y-90170000D01*
X144780000Y-90170000D02*
X144780000Y-87630000D01*
X144780000Y-88900000D02*
X143510000Y-88900000D01*
X149860000Y-88900000D02*
X151130000Y-88900000D01*
X163679286Y-85494762D02*
X163822143Y-85542381D01*
X164060239Y-85542381D01*
X164155477Y-85494762D01*
X164203096Y-85447143D01*
X164250715Y-85351905D01*
X164250715Y-85256667D01*
X164203096Y-85161429D01*
X164155477Y-85113810D01*
X164060239Y-85066190D01*
X163869762Y-85018571D01*
X163774524Y-84970952D01*
X163726905Y-84923333D01*
X163679286Y-84828095D01*
X163679286Y-84732857D01*
X163726905Y-84637619D01*
X163774524Y-84590000D01*
X163869762Y-84542381D01*
X164107858Y-84542381D01*
X164250715Y-84590000D01*
X164679286Y-85542381D02*
X164679286Y-84542381D01*
X164917381Y-84542381D01*
X165060239Y-84590000D01*
X165155477Y-84685238D01*
X165203096Y-84780476D01*
X165250715Y-84970952D01*
X165250715Y-85113810D01*
X165203096Y-85304286D01*
X165155477Y-85399524D01*
X165060239Y-85494762D01*
X164917381Y-85542381D01*
X164679286Y-85542381D01*
X98171190Y-102750952D02*
X98075952Y-102703333D01*
X98028333Y-102655714D01*
X97980714Y-102560476D01*
X97980714Y-102512857D01*
X98028333Y-102417619D01*
X98075952Y-102370000D01*
X98171190Y-102322381D01*
X98361667Y-102322381D01*
X98456905Y-102370000D01*
X98504524Y-102417619D01*
X98552143Y-102512857D01*
X98552143Y-102560476D01*
X98504524Y-102655714D01*
X98456905Y-102703333D01*
X98361667Y-102750952D01*
X98171190Y-102750952D01*
X98075952Y-102798571D01*
X98028333Y-102846190D01*
X97980714Y-102941429D01*
X97980714Y-103131905D01*
X98028333Y-103227143D01*
X98075952Y-103274762D01*
X98171190Y-103322381D01*
X98361667Y-103322381D01*
X98456905Y-103274762D01*
X98504524Y-103227143D01*
X98552143Y-103131905D01*
X98552143Y-102941429D01*
X98504524Y-102846190D01*
X98456905Y-102798571D01*
X98361667Y-102750952D01*
X99456905Y-102322381D02*
X98980714Y-102322381D01*
X98933095Y-102798571D01*
X98980714Y-102750952D01*
X99075952Y-102703333D01*
X99314048Y-102703333D01*
X99409286Y-102750952D01*
X99456905Y-102798571D01*
X99504524Y-102893810D01*
X99504524Y-103131905D01*
X99456905Y-103227143D01*
X99409286Y-103274762D01*
X99314048Y-103322381D01*
X99075952Y-103322381D01*
X98980714Y-103274762D01*
X98933095Y-103227143D01*
X100456905Y-103322381D02*
X99885476Y-103322381D01*
X100171190Y-103322381D02*
X100171190Y-102322381D01*
X100075952Y-102465238D01*
X99980714Y-102560476D01*
X99885476Y-102608095D01*
X101361667Y-102322381D02*
X100885476Y-102322381D01*
X100837857Y-102798571D01*
X100885476Y-102750952D01*
X100980714Y-102703333D01*
X101218810Y-102703333D01*
X101314048Y-102750952D01*
X101361667Y-102798571D01*
X101409286Y-102893810D01*
X101409286Y-103131905D01*
X101361667Y-103227143D01*
X101314048Y-103274762D01*
X101218810Y-103322381D01*
X100980714Y-103322381D01*
X100885476Y-103274762D01*
X100837857Y-103227143D01*
X156829286Y-73112381D02*
X157448334Y-73112381D01*
X157115000Y-73493333D01*
X157257858Y-73493333D01*
X157353096Y-73540952D01*
X157400715Y-73588571D01*
X157448334Y-73683810D01*
X157448334Y-73921905D01*
X157400715Y-74017143D01*
X157353096Y-74064762D01*
X157257858Y-74112381D01*
X156972143Y-74112381D01*
X156876905Y-74064762D01*
X156829286Y-74017143D01*
X157781667Y-73112381D02*
X158448334Y-73112381D01*
X158019762Y-74112381D01*
X158734048Y-73112381D02*
X159400715Y-73112381D01*
X158972143Y-74112381D01*
X154225715Y-57872381D02*
X153749524Y-57872381D01*
X153701905Y-58348571D01*
X153749524Y-58300952D01*
X153844762Y-58253333D01*
X154082858Y-58253333D01*
X154178096Y-58300952D01*
X154225715Y-58348571D01*
X154273334Y-58443810D01*
X154273334Y-58681905D01*
X154225715Y-58777143D01*
X154178096Y-58824762D01*
X154082858Y-58872381D01*
X153844762Y-58872381D01*
X153749524Y-58824762D01*
X153701905Y-58777143D01*
X155130477Y-58205714D02*
X155130477Y-58872381D01*
X154892381Y-57824762D02*
X154654286Y-58539048D01*
X155273334Y-58539048D01*
X156178096Y-58872381D02*
X155606667Y-58872381D01*
X155892381Y-58872381D02*
X155892381Y-57872381D01*
X155797143Y-58015238D01*
X155701905Y-58110476D01*
X155606667Y-58158095D01*
X162472858Y-108513571D02*
X162615715Y-108561190D01*
X162663334Y-108608810D01*
X162710953Y-108704048D01*
X162710953Y-108846905D01*
X162663334Y-108942143D01*
X162615715Y-108989762D01*
X162520477Y-109037381D01*
X162139524Y-109037381D01*
X162139524Y-108037381D01*
X162472858Y-108037381D01*
X162568096Y-108085000D01*
X162615715Y-108132619D01*
X162663334Y-108227857D01*
X162663334Y-108323095D01*
X162615715Y-108418333D01*
X162568096Y-108465952D01*
X162472858Y-108513571D01*
X162139524Y-108513571D01*
X163139524Y-108037381D02*
X163139524Y-108846905D01*
X163187143Y-108942143D01*
X163234762Y-108989762D01*
X163330000Y-109037381D01*
X163520477Y-109037381D01*
X163615715Y-108989762D01*
X163663334Y-108942143D01*
X163710953Y-108846905D01*
X163710953Y-108037381D01*
X164139524Y-108989762D02*
X164282381Y-109037381D01*
X164520477Y-109037381D01*
X164615715Y-108989762D01*
X164663334Y-108942143D01*
X164710953Y-108846905D01*
X164710953Y-108751667D01*
X164663334Y-108656429D01*
X164615715Y-108608810D01*
X164520477Y-108561190D01*
X164330000Y-108513571D01*
X164234762Y-108465952D01*
X164187143Y-108418333D01*
X164139524Y-108323095D01*
X164139524Y-108227857D01*
X164187143Y-108132619D01*
X164234762Y-108085000D01*
X164330000Y-108037381D01*
X164568096Y-108037381D01*
X164710953Y-108085000D01*
X165330000Y-108561190D02*
X165330000Y-109037381D01*
X164996667Y-108037381D02*
X165330000Y-108561190D01*
X165663334Y-108037381D01*
X184602619Y-109037381D02*
X184269285Y-108561190D01*
X184031190Y-109037381D02*
X184031190Y-108037381D01*
X184412143Y-108037381D01*
X184507381Y-108085000D01*
X184555000Y-108132619D01*
X184602619Y-108227857D01*
X184602619Y-108370714D01*
X184555000Y-108465952D01*
X184507381Y-108513571D01*
X184412143Y-108561190D01*
X184031190Y-108561190D01*
X185031190Y-108513571D02*
X185364524Y-108513571D01*
X185507381Y-109037381D02*
X185031190Y-109037381D01*
X185031190Y-108037381D01*
X185507381Y-108037381D01*
X185888333Y-108989762D02*
X186031190Y-109037381D01*
X186269286Y-109037381D01*
X186364524Y-108989762D01*
X186412143Y-108942143D01*
X186459762Y-108846905D01*
X186459762Y-108751667D01*
X186412143Y-108656429D01*
X186364524Y-108608810D01*
X186269286Y-108561190D01*
X186078809Y-108513571D01*
X185983571Y-108465952D01*
X185935952Y-108418333D01*
X185888333Y-108323095D01*
X185888333Y-108227857D01*
X185935952Y-108132619D01*
X185983571Y-108085000D01*
X186078809Y-108037381D01*
X186316905Y-108037381D01*
X186459762Y-108085000D01*
X186888333Y-108513571D02*
X187221667Y-108513571D01*
X187364524Y-109037381D02*
X186888333Y-109037381D01*
X186888333Y-108037381D01*
X187364524Y-108037381D01*
X187650238Y-108037381D02*
X188221667Y-108037381D01*
X187935952Y-109037381D02*
X187935952Y-108037381D01*
X185340715Y-57872381D02*
X184864524Y-57872381D01*
X184816905Y-58348571D01*
X184864524Y-58300952D01*
X184959762Y-58253333D01*
X185197858Y-58253333D01*
X185293096Y-58300952D01*
X185340715Y-58348571D01*
X185388334Y-58443810D01*
X185388334Y-58681905D01*
X185340715Y-58777143D01*
X185293096Y-58824762D01*
X185197858Y-58872381D01*
X184959762Y-58872381D01*
X184864524Y-58824762D01*
X184816905Y-58777143D01*
X186245477Y-58205714D02*
X186245477Y-58872381D01*
X186007381Y-57824762D02*
X185769286Y-58539048D01*
X186388334Y-58539048D01*
X187293096Y-58872381D02*
X186721667Y-58872381D01*
X187007381Y-58872381D02*
X187007381Y-57872381D01*
X186912143Y-58015238D01*
X186816905Y-58110476D01*
X186721667Y-58158095D01*
X97710715Y-57872381D02*
X97234524Y-57872381D01*
X97186905Y-58348571D01*
X97234524Y-58300952D01*
X97329762Y-58253333D01*
X97567858Y-58253333D01*
X97663096Y-58300952D01*
X97710715Y-58348571D01*
X97758334Y-58443810D01*
X97758334Y-58681905D01*
X97710715Y-58777143D01*
X97663096Y-58824762D01*
X97567858Y-58872381D01*
X97329762Y-58872381D01*
X97234524Y-58824762D01*
X97186905Y-58777143D01*
X98615477Y-58205714D02*
X98615477Y-58872381D01*
X98377381Y-57824762D02*
X98139286Y-58539048D01*
X98758334Y-58539048D01*
X99663096Y-58872381D02*
X99091667Y-58872381D01*
X99377381Y-58872381D02*
X99377381Y-57872381D01*
X99282143Y-58015238D01*
X99186905Y-58110476D01*
X99091667Y-58158095D01*
X129730715Y-73747381D02*
X129540238Y-73747381D01*
X129445000Y-73795000D01*
X129397381Y-73842619D01*
X129302143Y-73985476D01*
X129254524Y-74175952D01*
X129254524Y-74556905D01*
X129302143Y-74652143D01*
X129349762Y-74699762D01*
X129445000Y-74747381D01*
X129635477Y-74747381D01*
X129730715Y-74699762D01*
X129778334Y-74652143D01*
X129825953Y-74556905D01*
X129825953Y-74318810D01*
X129778334Y-74223571D01*
X129730715Y-74175952D01*
X129635477Y-74128333D01*
X129445000Y-74128333D01*
X129349762Y-74175952D01*
X129302143Y-74223571D01*
X129254524Y-74318810D01*
X130206905Y-73842619D02*
X130254524Y-73795000D01*
X130349762Y-73747381D01*
X130587858Y-73747381D01*
X130683096Y-73795000D01*
X130730715Y-73842619D01*
X130778334Y-73937857D01*
X130778334Y-74033095D01*
X130730715Y-74175952D01*
X130159286Y-74747381D01*
X130778334Y-74747381D01*
X131159286Y-73842619D02*
X131206905Y-73795000D01*
X131302143Y-73747381D01*
X131540239Y-73747381D01*
X131635477Y-73795000D01*
X131683096Y-73842619D01*
X131730715Y-73937857D01*
X131730715Y-74033095D01*
X131683096Y-74175952D01*
X131111667Y-74747381D01*
X131730715Y-74747381D01*
X132635477Y-73747381D02*
X132159286Y-73747381D01*
X132111667Y-74223571D01*
X132159286Y-74175952D01*
X132254524Y-74128333D01*
X132492620Y-74128333D01*
X132587858Y-74175952D01*
X132635477Y-74223571D01*
X132683096Y-74318810D01*
X132683096Y-74556905D01*
X132635477Y-74652143D01*
X132587858Y-74699762D01*
X132492620Y-74747381D01*
X132254524Y-74747381D01*
X132159286Y-74699762D01*
X132111667Y-74652143D01*
X133540239Y-73747381D02*
X133349762Y-73747381D01*
X133254524Y-73795000D01*
X133206905Y-73842619D01*
X133111667Y-73985476D01*
X133064048Y-74175952D01*
X133064048Y-74556905D01*
X133111667Y-74652143D01*
X133159286Y-74699762D01*
X133254524Y-74747381D01*
X133445001Y-74747381D01*
X133540239Y-74699762D01*
X133587858Y-74652143D01*
X133635477Y-74556905D01*
X133635477Y-74318810D01*
X133587858Y-74223571D01*
X133540239Y-74175952D01*
X133445001Y-74128333D01*
X133254524Y-74128333D01*
X133159286Y-74175952D01*
X133111667Y-74223571D01*
X133064048Y-74318810D01*
X184824762Y-67762381D02*
X184253333Y-67762381D01*
X184539047Y-67762381D02*
X184539047Y-66762381D01*
X184443809Y-66905238D01*
X184348571Y-67000476D01*
X184253333Y-67048095D01*
X185253333Y-67095714D02*
X185253333Y-67762381D01*
X185253333Y-67190952D02*
X185300952Y-67143333D01*
X185396190Y-67095714D01*
X185539048Y-67095714D01*
X185634286Y-67143333D01*
X185681905Y-67238571D01*
X185681905Y-67762381D01*
X186491429Y-67238571D02*
X186158095Y-67238571D01*
X186158095Y-67762381D02*
X186158095Y-66762381D01*
X186634286Y-66762381D01*
X188682381Y-72675714D02*
X188682381Y-72866191D01*
X188730000Y-72961429D01*
X188777619Y-73009048D01*
X188920476Y-73104286D01*
X189110952Y-73151905D01*
X189491905Y-73151905D01*
X189587143Y-73104286D01*
X189634762Y-73056667D01*
X189682381Y-72961429D01*
X189682381Y-72770952D01*
X189634762Y-72675714D01*
X189587143Y-72628095D01*
X189491905Y-72580476D01*
X189253810Y-72580476D01*
X189158571Y-72628095D01*
X189110952Y-72675714D01*
X189063333Y-72770952D01*
X189063333Y-72961429D01*
X189110952Y-73056667D01*
X189158571Y-73104286D01*
X189253810Y-73151905D01*
X189110952Y-72009048D02*
X189063333Y-72104286D01*
X189015714Y-72151905D01*
X188920476Y-72199524D01*
X188872857Y-72199524D01*
X188777619Y-72151905D01*
X188730000Y-72104286D01*
X188682381Y-72009048D01*
X188682381Y-71818571D01*
X188730000Y-71723333D01*
X188777619Y-71675714D01*
X188872857Y-71628095D01*
X188920476Y-71628095D01*
X189015714Y-71675714D01*
X189063333Y-71723333D01*
X189110952Y-71818571D01*
X189110952Y-72009048D01*
X189158571Y-72104286D01*
X189206190Y-72151905D01*
X189301429Y-72199524D01*
X189491905Y-72199524D01*
X189587143Y-72151905D01*
X189634762Y-72104286D01*
X189682381Y-72009048D01*
X189682381Y-71818571D01*
X189634762Y-71723333D01*
X189587143Y-71675714D01*
X189491905Y-71628095D01*
X189301429Y-71628095D01*
X189206190Y-71675714D01*
X189158571Y-71723333D01*
X189110952Y-71818571D01*
X157265714Y-95376904D02*
X157932381Y-95376904D01*
X156884762Y-95615000D02*
X157599048Y-95853095D01*
X157599048Y-95234047D01*
X156932381Y-94948333D02*
X156932381Y-94281666D01*
X157932381Y-94710238D01*
X156932381Y-93710238D02*
X156932381Y-93614999D01*
X156980000Y-93519761D01*
X157027619Y-93472142D01*
X157122857Y-93424523D01*
X157313333Y-93376904D01*
X157551429Y-93376904D01*
X157741905Y-93424523D01*
X157837143Y-93472142D01*
X157884762Y-93519761D01*
X157932381Y-93614999D01*
X157932381Y-93710238D01*
X157884762Y-93805476D01*
X157837143Y-93853095D01*
X157741905Y-93900714D01*
X157551429Y-93948333D01*
X157313333Y-93948333D01*
X157122857Y-93900714D01*
X157027619Y-93853095D01*
X156980000Y-93805476D01*
X156932381Y-93710238D01*
X146724762Y-89352381D02*
X146153333Y-89352381D01*
X146439047Y-89352381D02*
X146439047Y-88352381D01*
X146343809Y-88495238D01*
X146248571Y-88590476D01*
X146153333Y-88638095D01*
X147343809Y-88352381D02*
X147439048Y-88352381D01*
X147534286Y-88400000D01*
X147581905Y-88447619D01*
X147629524Y-88542857D01*
X147677143Y-88733333D01*
X147677143Y-88971429D01*
X147629524Y-89161905D01*
X147581905Y-89257143D01*
X147534286Y-89304762D01*
X147439048Y-89352381D01*
X147343809Y-89352381D01*
X147248571Y-89304762D01*
X147200952Y-89257143D01*
X147153333Y-89161905D01*
X147105714Y-88971429D01*
X147105714Y-88733333D01*
X147153333Y-88542857D01*
X147200952Y-88447619D01*
X147248571Y-88400000D01*
X147343809Y-88352381D01*
X148105714Y-89352381D02*
X148105714Y-88352381D01*
X148200952Y-88971429D02*
X148486667Y-89352381D01*
X148486667Y-88685714D02*
X148105714Y-89066667D01*
M02*
